<?xml version="1.0" encoding="UTF-8"?>
<!-- Generator: visioncortex VTracer 0.6.3 -->
<svg version="1.1" xmlns="http://www.w3.org/2000/svg" width="1280" height="1280">
<path d="M0 0 C5.93 0.02 11.87 0.01 17.8 -0.01 C59.88 -0.15 103.17 0.28 144.41 9.52 C145.46 9.75 145.46 9.75 146.53 9.99 C166.13 14.38 185.51 19.36 204.61 25.61 C207.24 26.46 209.87 27.29 212.51 28.12 C262.54 43.99 313.1 66.91 355.76 97.67 C359.27 100.12 362.87 102.4 366.48 104.71 C378.91 112.69 391.02 121.1 402.41 130.52 C403.27 131.2 404.12 131.89 405 132.59 C410.68 137.14 416.06 141.91 421.37 146.87 C425.27 150.5 429.24 154.01 433.29 157.46 C434.16 158.21 434.16 158.21 435.06 158.97 C438 161.48 440.96 163.98 443.93 166.46 C451.59 172.93 458.82 179.75 465.91 186.83 C467.17 188.09 467.17 188.09 468.45 189.37 C472.8 193.76 477 198.22 481.02 202.92 C482.1 204.16 483.25 205.35 484.41 206.52 C484.54 209.15 484.54 209.15 484.41 211.52 C485.07 211.71 485.73 211.89 486.41 212.08 C493.67 215.56 498.51 221.63 503.41 227.83 C503.91 228.46 504.4 229.08 504.91 229.72 C508.41 234.26 508.41 234.26 508.41 236.52 C509.07 236.52 509.73 236.52 510.41 236.52 C511.94 238.37 511.94 238.37 513.79 241.02 C517.23 245.88 520.76 250.65 524.35 255.4 C532.19 265.8 539.49 276.48 546.41 287.52 C547.56 289.31 548.71 291.11 549.85 292.9 C564.75 316.34 579.05 340.29 590.54 365.61 C591.37 367.42 592.23 369.2 593.11 370.99 C607.55 400.75 618.05 433.54 626.41 465.52 C626.72 466.67 627.02 467.82 627.33 469 C636.06 502.19 642.62 535.79 646.1 569.96 C646.22 571.13 646.34 572.3 646.46 573.51 C648.16 591.2 648.6 608.83 648.6 626.6 C648.6 630.05 648.62 633.51 648.64 636.97 C648.68 651.65 647.98 666.15 646.66 680.77 C646.45 683.16 646.24 685.54 646.05 687.93 C643.18 722.53 637.28 756.27 628.91 789.96 C628.64 791.08 628.64 791.08 628.35 792.23 C615.36 844.47 594.83 893.78 568.88 940.85 C567.89 942.66 566.9 944.47 565.92 946.29 C562.6 952.43 559.14 958.48 555.54 964.46 C555.02 965.33 554.49 966.2 553.95 967.1 C549.95 973.71 545.8 980.16 541.41 986.52 C540.54 987.81 539.67 989.09 538.8 990.38 C533.21 998.59 527.48 1006.66 521.41 1014.52 C520.99 1015.07 520.57 1015.62 520.13 1016.18 C514.71 1023.21 509.16 1030.1 503.39 1036.85 C500.6 1040.11 497.9 1043.41 495.23 1046.77 C484.82 1059.49 473.01 1071.02 461.41 1082.65 C460.88 1083.19 460.34 1083.72 459.79 1084.28 C453.84 1090.25 447.84 1096.07 441.41 1101.52 C440.16 1102.62 438.9 1103.73 437.64 1104.83 C436.44 1105.87 435.24 1106.92 434.04 1107.96 C433.42 1108.5 432.81 1109.04 432.18 1109.6 C427.64 1113.52 427.64 1113.52 425.41 1113.52 C425.08 1114.51 424.75 1115.5 424.41 1116.52 C422.96 1117.88 422.96 1117.88 421.09 1119.27 C420.4 1119.79 419.71 1120.31 418.99 1120.85 C418.25 1121.4 417.5 1121.95 416.73 1122.52 C415.16 1123.69 413.6 1124.87 412.04 1126.04 C410.87 1126.92 410.87 1126.92 409.67 1127.82 C406.48 1130.23 403.35 1132.72 400.23 1135.21 C394.06 1140.09 387.72 1144.68 381.29 1149.2 C379.31 1150.59 377.35 1152.01 375.39 1153.43 C359.16 1165.11 341.98 1174.99 324.65 1184.93 C320.16 1187.51 315.7 1190.12 311.26 1192.77 C304.56 1196.77 297.81 1200.4 290.8 1203.81 C287.31 1205.57 283.97 1207.49 280.6 1209.46 C266.43 1217.69 251.75 1224.2 235.66 1227.54 C234.86 1227.7 234.06 1227.87 233.23 1228.04 C231.7 1228.35 230.16 1228.64 228.62 1228.92 C223.88 1229.84 220.99 1231.37 217.2 1234.31 C214.07 1236.43 210.61 1237.24 206.98 1238.15 C205.8 1238.46 205.8 1238.46 204.6 1238.78 C198.22 1240.42 191.8 1241.63 185.31 1242.77 C180.1 1243.78 175.03 1245.14 169.91 1246.56 C163.55 1248.31 157.32 1249.75 150.79 1250.77 C144.98 1251.72 139.38 1253.03 133.73 1254.69 C125.29 1257.14 117.08 1259.05 108.35 1260.04 C107.32 1260.16 106.29 1260.29 105.23 1260.41 C101.96 1260.79 98.69 1261.16 95.41 1261.52 C93.83 1261.7 93.83 1261.7 92.22 1261.88 C23.69 1269.4 -47.58 1270.26 -114.65 1251.96 C-119.17 1250.76 -123.53 1250.17 -128.21 1249.77 C-133.72 1249.2 -138.05 1248.1 -143.09 1245.65 C-150.42 1242.17 -157.79 1241.07 -165.8 1239.99 C-175.29 1238.66 -183.6 1235.8 -192.02 1231.21 C-197.31 1228.44 -202.61 1226.42 -208.27 1224.58 C-223.56 1219.53 -238.03 1212.3 -252.58 1205.46 C-254.42 1204.6 -256.26 1203.74 -258.11 1202.88 C-278.92 1193.14 -298.92 1182.41 -318.59 1170.52 C-319.32 1170.08 -320.06 1169.63 -320.82 1169.18 C-331.85 1162.54 -342.25 1155.17 -352.59 1147.52 C-353.28 1147.01 -353.97 1146.51 -354.68 1145.98 C-364.28 1138.92 -373.6 1131.56 -382.8 1123.99 C-384.42 1122.66 -386.05 1121.34 -387.68 1120.02 C-393 1115.72 -398.12 1111.26 -403.17 1106.65 C-406.16 1104.02 -409.28 1101.6 -412.48 1099.22 C-415.04 1097.16 -417.27 1094.86 -419.59 1092.52 C-421.45 1090.8 -423.33 1089.1 -425.21 1087.4 C-430.45 1082.64 -435.46 1077.7 -440.41 1072.64 C-442.4 1070.49 -442.4 1070.49 -444.59 1069.52 C-444.59 1068.86 -444.59 1068.2 -444.59 1067.52 C-445.25 1067.52 -445.91 1067.52 -446.59 1067.52 C-448.07 1066.02 -448.07 1066.02 -449.77 1063.96 C-452.12 1061.2 -454.49 1058.55 -457.09 1056.02 C-460.8 1052.36 -464.2 1048.49 -467.59 1044.52 C-468 1044.04 -468.41 1043.56 -468.84 1043.06 C-479.19 1030.95 -488.84 1018.51 -498.12 1005.56 C-499.91 1003.07 -501.75 1000.61 -503.59 998.15 C-523.66 970.51 -541.62 940.41 -555.82 909.35 C-558.01 904.54 -560.43 899.85 -562.85 895.16 C-564.87 891.08 -566.56 886.86 -568.29 882.65 C-569.49 879.75 -570.71 876.86 -571.94 873.98 C-587.39 837.62 -598.43 800.15 -606.59 761.52 C-606.82 760.42 -606.82 760.42 -607.06 759.29 C-612.24 734.88 -616.3 710.46 -617.59 685.52 C-617.63 684.71 -617.67 683.9 -617.72 683.07 C-618.07 676.43 -618.39 669.79 -618.71 663.15 C-618.76 662.22 -618.8 661.3 -618.85 660.35 C-619.86 639.05 -619.59 618.01 -618.47 596.72 C-618.27 592.99 -618.09 589.26 -617.92 585.54 C-616.23 552.02 -611.44 519.8 -603.49 487.22 C-602.91 484.86 -602.34 482.49 -601.78 480.13 C-596.93 459.85 -590.41 440.2 -583.59 420.52 C-583.32 419.76 -583.06 419 -582.79 418.22 C-582 415.92 -581.2 413.63 -580.4 411.34 C-580.04 410.31 -580.04 410.31 -579.67 409.25 C-577.81 403.96 -575.56 398.92 -573.14 393.87 C-571.4 390.13 -569.87 386.34 -568.34 382.52 C-564.2 372.31 -559.42 362.42 -554.59 352.52 C-554.24 351.82 -553.9 351.11 -553.55 350.39 C-545.65 334.1 -536.87 318.26 -527.71 302.65 C-527.19 301.75 -526.66 300.85 -526.13 299.93 C-523.31 295.18 -520.33 290.69 -516.96 286.31 C-515.03 283.8 -513.25 281.2 -511.46 278.58 C-510.69 277.46 -509.91 276.34 -509.14 275.21 C-508.73 274.62 -508.32 274.03 -507.9 273.42 C-500.39 262.57 -492.73 251.91 -484.59 241.52 C-482.82 239.26 -481.05 237 -479.29 234.74 C-478.12 233.24 -476.94 231.73 -475.76 230.23 C-473.41 227.22 -471.07 224.22 -468.89 221.08 C-463.73 213.65 -457.78 207.3 -451.37 200.97 C-450.3 199.91 -449.23 198.84 -448.16 197.78 C-445.94 195.56 -443.72 193.35 -441.49 191.14 C-438.65 188.33 -435.82 185.51 -432.99 182.69 C-430.27 179.97 -427.54 177.25 -424.8 174.54 C-424.3 174.03 -423.79 173.52 -423.26 173 C-417.54 167.3 -411.73 161.76 -405.59 156.52 C-404.37 155.43 -404.37 155.43 -403.12 154.31 C-402.49 153.74 -401.86 153.17 -401.21 152.58 C-400.56 152 -399.92 151.41 -399.25 150.81 C-397.59 149.52 -397.59 149.52 -395.59 149.52 C-395.59 148.86 -395.59 148.2 -395.59 147.52 C-393.89 145.98 -392.13 144.51 -390.34 143.08 C-389.36 142.3 -388.39 141.52 -387.38 140.71 C-386.46 139.99 -385.54 139.27 -384.59 138.52 C-383.85 137.93 -383.11 137.34 -382.35 136.74 C-380.59 135.52 -380.59 135.52 -378.59 135.52 C-378.59 134.86 -378.59 134.2 -378.59 133.52 C-376.57 131.86 -376.57 131.86 -373.77 129.9 C-372.76 129.18 -371.75 128.47 -370.71 127.73 C-369.17 126.64 -369.17 126.64 -367.59 125.52 C-365.79 124.21 -364 122.9 -362.21 121.58 C-351.57 113.85 -340.69 106.57 -329.59 99.52 C-328.7 98.95 -327.81 98.38 -326.89 97.79 C-324.13 96.02 -321.36 94.27 -318.59 92.52 C-317.99 92.15 -317.4 91.78 -316.79 91.39 C-294.71 77.51 -271.88 65 -248 54.5 C-245.15 53.24 -242.35 51.92 -239.57 50.51 C-197.66 29.29 -149.37 16.63 -103.59 7.52 C-102.42 7.29 -101.26 7.05 -100.06 6.81 C-90.08 4.87 -80.12 3.41 -70.01 2.37 C-68.75 2.24 -68.75 2.24 -67.47 2.1 C-45.02 -0.13 -22.54 -0.09 0 0 Z M-48.59 59.52 C-50.7 59.76 -52.81 60.01 -54.92 60.25 C-60.49 60.91 -66.04 61.68 -71.59 62.52 C-72.94 62.72 -72.94 62.72 -74.32 62.93 C-105.67 67.73 -136.04 76.61 -166.09 86.58 C-166.84 86.83 -167.59 87.08 -168.37 87.34 C-176.36 90 -184.32 92.74 -192.21 95.68 C-192.84 95.91 -193.48 96.15 -194.13 96.39 C-199.83 98.54 -205.32 101.09 -210.81 103.74 C-214.67 105.58 -218.59 107.27 -222.52 108.96 C-230.71 112.5 -238.66 116.44 -246.59 120.52 C-247.71 121.1 -247.71 121.1 -248.86 121.69 C-278.43 136.89 -306.45 154.89 -332.8 175.16 C-334.55 176.49 -336.31 177.82 -338.07 179.13 C-344.32 183.83 -350.2 188.78 -355.93 194.11 C-358.47 196.42 -361.08 198.57 -363.77 200.71 C-369.36 205.21 -374.56 210.09 -379.75 215.03 C-383.68 218.76 -387.67 222.38 -391.8 225.9 C-394.17 228.05 -396.19 230.44 -398.23 232.9 C-400.2 235.26 -402.39 237.38 -404.59 239.52 C-409.51 244.32 -414.12 249.29 -418.59 254.52 C-419.42 255.49 -420.26 256.46 -421.12 257.46 C-427.55 264.95 -433.64 272.64 -439.59 280.52 C-440.3 281.46 -441.02 282.4 -441.75 283.37 C-444.05 286.41 -446.32 289.46 -448.59 292.52 C-449.07 293.18 -449.56 293.84 -450.07 294.53 C-491.11 350.25 -522.39 415.41 -540.02 482.38 C-540.58 484.51 -541.17 486.64 -541.75 488.76 C-560.91 558.79 -565.98 631.56 -555.59 703.52 C-555.43 704.58 -555.28 705.64 -555.12 706.73 C-554.01 714.34 -552.82 721.93 -551.59 729.52 C-551.42 730.52 -551.26 731.53 -551.1 732.56 C-549.03 745.36 -546.54 757.98 -543.34 770.55 C-542.81 772.65 -542.28 774.74 -541.76 776.84 C-535.05 803.69 -526.43 829.71 -515.57 855.18 C-514.52 857.67 -513.53 860.19 -512.53 862.71 C-510.98 866.62 -509.25 870.39 -507.34 874.15 C-506.72 875.36 -506.1 876.57 -505.49 877.78 C-505.17 878.4 -504.86 879.01 -504.53 879.65 C-503.6 881.49 -502.69 883.34 -501.78 885.2 C-479.87 929.86 -452.09 971.41 -418.64 1008.25 C-415.58 1011.64 -412.58 1015.08 -409.59 1018.52 C-407.82 1020.54 -406.05 1022.55 -404.28 1024.56 C-403.14 1025.87 -402.03 1027.22 -400.95 1028.58 C-400.44 1029.22 -399.93 1029.86 -399.4 1030.52 C-398.95 1031.1 -398.5 1031.68 -398.04 1032.27 C-396.4 1033.96 -396.4 1033.96 -392.59 1033.52 C-392.36 1034.41 -392.13 1035.3 -391.9 1036.21 C-389.6 1042.02 -384.32 1045.74 -379.77 1049.9 C-379.24 1050.38 -378.71 1050.86 -378.17 1051.36 C-374.72 1054.51 -371.23 1057.6 -367.7 1060.65 C-365.54 1062.56 -363.43 1064.51 -361.32 1066.47 C-344.75 1081.81 -326.61 1094.83 -307.48 1106.8 C-301.55 1110.52 -295.69 1114.37 -289.84 1118.22 C-261.37 1138.48 -261.37 1138.48 -228.59 1147.52 C-228.59 1149.17 -228.59 1150.82 -228.59 1152.52 C-213.7 1158.83 -198.77 1164.96 -183.59 1170.52 C-182.38 1170.97 -181.17 1171.41 -179.93 1171.87 C-168.95 1175.85 -157.9 1179.38 -146.52 1182.02 C-145.63 1182.23 -144.73 1182.44 -143.81 1182.66 C-134.44 1184.83 -125.03 1186.72 -115.59 1188.52 C-114.46 1188.74 -113.33 1188.96 -112.16 1189.18 C-108.49 1189.88 -104.82 1190.58 -101.15 1191.27 C-99.98 1191.49 -98.81 1191.72 -97.61 1191.95 C-96.51 1192.15 -95.41 1192.36 -94.28 1192.57 C-93.3 1192.75 -92.32 1192.94 -91.31 1193.13 C-88.69 1193.51 -86.23 1193.59 -83.59 1193.52 C-83.26 1194.84 -82.93 1196.16 -82.59 1197.52 C-67.96 1199.83 -53.43 1201.36 -38.65 1202.21 C-37.58 1202.27 -36.52 1202.33 -35.42 1202.4 C-17 1203.46 1.41 1203.82 19.86 1203.83 C21.81 1203.83 23.76 1203.84 25.72 1203.84 C48.67 1203.88 71.61 1202.96 94.35 1199.71 C96.19 1199.45 96.19 1199.45 98.07 1199.19 C101.86 1198.65 105.64 1198.09 109.41 1197.52 C110.64 1197.34 111.86 1197.15 113.12 1196.96 C130.88 1194.23 148.13 1190.4 165.41 1185.52 C167.07 1185.06 167.07 1185.06 168.76 1184.59 C194.66 1177.33 219.74 1168.2 244.41 1157.52 C245.51 1157.05 246.6 1156.59 247.72 1156.11 C263.45 1149.38 278.57 1142.02 293.41 1133.52 C294.67 1132.81 294.67 1132.81 295.94 1132.09 C326.29 1114.88 354.84 1095.07 381.75 1072.88 C383.96 1071.07 386.22 1069.32 388.48 1067.58 C394.31 1063.07 399.48 1058.55 404.27 1052.93 C410.92 1045.46 418.16 1038.44 425.76 1031.95 C428.12 1029.91 430.31 1027.83 432.41 1025.52 C432.41 1024.86 432.41 1024.2 432.41 1023.52 C433.4 1023.19 434.39 1022.86 435.41 1022.52 C436.79 1020.99 438.09 1019.4 439.35 1017.77 C442.88 1013.34 446.54 1009.15 450.41 1005.02 C455.68 999.39 460.62 993.57 465.41 987.52 C466.3 986.42 467.18 985.32 468.06 984.22 C477.2 972.76 485.69 960.98 493.41 948.52 C494.17 947.32 494.92 946.12 495.68 944.92 C497.82 941.51 499.96 938.09 502.08 934.67 C502.96 933.25 503.84 931.83 504.73 930.42 C520.42 905.22 533.95 879.44 545.36 852.04 C546.35 849.67 547.36 847.31 548.37 844.95 C554.87 829.49 559.81 813.48 564.8 797.48 C565.36 795.69 565.93 793.9 566.49 792.11 C571.61 775.81 575.28 759.31 578.41 742.52 C578.61 741.51 578.8 740.49 579 739.44 C584.85 707.82 587.06 675.64 587.41 643.52 C587.44 641.77 587.47 640.03 587.5 638.28 C587.56 633.69 587.5 629.11 587.41 624.52 C587.4 623.43 587.38 622.35 587.36 621.23 C586.86 594.13 584.5 567.33 580.41 540.52 C580.2 539.11 580.2 539.11 579.99 537.68 C577.58 521.76 574.25 506.15 570.41 490.52 C570.15 489.43 569.89 488.35 569.62 487.23 C559.14 443.9 543.18 400.95 521.69 361.85 C520.31 359.34 518.95 356.82 517.59 354.3 C512.83 345.5 507.93 336.88 502.41 328.52 C501.69 327.38 500.96 326.24 500.23 325.1 C495.79 318.12 491.22 311.26 486.41 304.52 C485.68 303.47 484.94 302.41 484.18 301.32 C478.86 293.74 473.26 286.45 467.42 279.25 C465.45 276.82 463.51 274.37 461.59 271.88 C456.75 265.6 451.77 259.58 446.34 253.79 C442.75 249.95 439.47 245.94 436.27 241.78 C434.13 239.18 431.82 236.87 429.41 234.52 C418.52 223.77 418.52 223.77 415.23 219.77 C412.03 215.9 408.24 212.76 404.41 209.52 C404.08 209.19 403.75 208.86 403.41 208.52 C401.75 208.48 400.08 208.48 398.41 208.52 C398.25 207.72 398.08 206.91 397.91 206.08 C394.25 197.39 386.39 191.59 378.91 186.21 C377.14 184.91 375.37 183.6 373.59 182.3 C372.72 181.67 371.85 181.03 370.94 180.37 C367.95 178.18 364.98 175.94 362.01 173.7 C332.36 151.28 300.89 131.77 267.41 115.52 C266.36 114.98 266.36 114.98 265.29 114.44 C257.69 110.56 249.92 107.12 242.1 103.71 C241.39 103.4 240.69 103.09 239.96 102.77 C219.86 94.02 199.61 86.8 178.62 80.49 C175.96 79.69 173.31 78.87 170.66 78.05 C151.93 72.3 132.69 68.04 113.41 64.52 C112.5 64.35 111.58 64.19 110.64 64.01 C99.13 61.94 87.6 60.2 75.98 58.83 C74.97 58.71 73.97 58.6 72.93 58.47 C54.31 56.39 35.7 56.28 16.98 56.27 C16.3 56.27 15.63 56.27 14.93 56.27 C-6.39 56.25 -27.41 56.87 -48.59 59.52 Z " fill="#000102" transform="translate(625.58544921875,6.478515625)"/>
<path d="M0 0 C1.97 -0.02 3.94 -0.04 5.9 -0.05 C7.26 -0.08 7.26 -0.08 8.64 -0.1 C15.18 -0.15 21.08 0.34 26.88 3.64 C30.05 7.08 31.44 10.77 33.13 15.08 C33.9 16.89 34.67 18.71 35.44 20.52 C38.82 28.65 41.97 36.87 45.13 45.08 C45.53 46.11 45.53 46.11 45.93 47.16 C47.34 50.8 48.74 54.44 50.13 58.08 C49.97 57.33 49.82 56.58 49.66 55.81 C49 52.4 48.75 49.54 49.13 46.08 C53.61 42.04 58.91 42.66 64.59 42.72 C65.62 42.72 66.64 42.72 67.69 42.72 C69.86 42.72 72.03 42.73 74.19 42.75 C77.46 42.77 80.73 42.77 84 42.76 C108.6 42.79 130.32 45.77 149.13 63.08 C160.61 75.61 164.29 90.19 164.27 106.88 C164.27 107.85 164.27 108.82 164.28 109.83 C164.28 113.1 164.29 116.37 164.29 119.64 C164.29 122 164.29 124.37 164.3 126.74 C164.31 132.56 164.32 138.38 164.32 144.21 C164.33 151.19 164.34 158.17 164.35 165.14 C164.37 182.81 164.39 200.48 164.4 218.14 C164.41 222.93 164.41 227.72 164.41 232.5 C164.44 262.23 164.46 291.96 164.47 321.69 C164.48 328.57 164.48 335.46 164.48 342.34 C164.48 343.2 164.48 344.05 164.48 344.93 C164.5 372.66 164.53 400.38 164.57 428.1 C164.61 456.62 164.64 485.13 164.64 513.65 C164.64 517.68 164.64 521.71 164.65 525.74 C164.65 526.53 164.65 527.32 164.65 528.14 C164.65 540.89 164.67 553.63 164.7 566.38 C164.72 579.2 164.73 592.02 164.72 604.84 C164.71 611.78 164.72 618.72 164.74 625.66 C164.76 632.02 164.76 638.38 164.74 644.74 C164.74 647.04 164.75 649.33 164.76 651.62 C164.87 668.76 163.64 684.79 153.13 699.08 C152.69 699.7 152.26 700.32 151.8 700.96 C144.9 709.84 134.25 716.87 123.06 718.54 C120.42 718.79 117.79 718.98 115.13 719.08 C115.13 720.07 115.13 721.06 115.13 722.08 C-43.6 722.08 -202.33 722.08 -365.87 722.08 C-365.87 720.76 -365.87 719.44 -365.87 718.08 C-366.86 718.13 -367.86 718.18 -368.89 718.24 C-373.16 718.07 -376.62 717.11 -380.56 715.58 C-381.25 715.32 -381.94 715.05 -382.66 714.78 C-389.39 712.08 -395.06 708.43 -400.87 704.08 C-401.48 703.66 -402.1 703.24 -402.73 702.81 C-412.13 695.96 -416.48 681.94 -418.42 670.96 C-418.95 666.41 -419.01 661.97 -419 657.39 C-419 656.43 -419.01 655.47 -419.01 654.47 C-419.02 651.24 -419.02 648.01 -419.01 644.78 C-419.02 642.44 -419.02 640.1 -419.03 637.76 C-419.04 632.01 -419.04 626.25 -419.04 620.49 C-419.04 613.6 -419.05 606.7 -419.06 599.8 C-419.08 583.13 -419.09 566.47 -419.1 549.8 C-419.11 541.91 -419.11 534.02 -419.12 526.13 C-419.13 499.13 -419.15 472.12 -419.16 445.11 C-419.16 443.41 -419.16 441.72 -419.16 440.02 C-419.16 439.18 -419.16 438.34 -419.16 437.48 C-419.16 433.22 -419.16 428.96 -419.16 424.7 C-419.16 423.43 -419.16 423.43 -419.16 422.14 C-419.17 394.74 -419.2 367.35 -419.23 339.95 C-419.26 310.97 -419.28 282 -419.28 253.02 C-419.29 249.84 -419.29 246.65 -419.29 243.47 C-419.29 242.69 -419.29 241.9 -419.29 241.1 C-419.29 228.5 -419.3 215.9 -419.33 203.31 C-419.35 190.64 -419.35 177.97 -419.34 165.3 C-419.34 158.44 -419.34 151.58 -419.36 144.72 C-419.38 138.44 -419.37 132.16 -419.36 125.87 C-419.36 123.6 -419.36 121.33 -419.37 119.07 C-419.45 103.61 -418.51 89.71 -411.12 75.77 C-410.77 75.11 -410.43 74.44 -410.07 73.76 C-404.77 63.86 -398.96 57.2 -388.87 52.08 C-388.18 51.7 -387.48 51.33 -386.77 50.94 C-371.29 42.72 -354.54 42.9 -337.43 42.89 C-336.69 42.89 -335.95 42.89 -335.18 42.89 C-312.65 42.89 -312.65 42.89 -307.87 46.08 C-308.91 52.76 -310.27 58.83 -312.87 65.08 C-312.21 65.41 -311.55 65.74 -310.87 66.08 C-310.63 65.3 -310.4 64.51 -310.16 63.7 C-308.5 59.04 -306.39 54.66 -304.24 50.21 C-303.8 49.28 -303.35 48.35 -302.89 47.39 C-299.6 40.54 -296.24 33.73 -292.81 26.95 C-291.43 24.21 -290.07 21.45 -288.74 18.68 C-288.38 17.95 -288.03 17.22 -287.66 16.48 C-286.99 15.09 -286.32 13.7 -285.66 12.31 C-283.84 8.61 -282.06 5.71 -278.87 3.08 C-275.7 2.03 -273.45 1.95 -270.13 1.93 C-268.93 1.92 -267.73 1.91 -266.49 1.9 C-265.15 1.9 -263.81 1.9 -262.48 1.89 C-261.07 1.88 -259.65 1.88 -258.24 1.87 C-255.18 1.85 -252.12 1.83 -249.05 1.82 C-244.12 1.8 -239.19 1.77 -234.26 1.75 C-227.19 1.71 -220.11 1.67 -213.04 1.64 C-196.46 1.56 -179.88 1.46 -163.3 1.37 C-159.6 1.35 -155.9 1.32 -152.19 1.3 C-115.34 1.1 -78.49 0.79 -41.63 0.42 C-37.46 0.38 -33.28 0.34 -29.1 0.29 C-26.36 0.27 -23.61 0.24 -20.87 0.21 C-16.73 0.17 -12.6 0.13 -8.46 0.1 C-5.64 0.08 -2.82 0.04 0 0 Z M-269.87 45.08 C-265.5 56.79 -251.95 63.04 -242.05 69.81 C-235.57 74.25 -229.24 78.88 -222.92 83.56 C-220.67 85.22 -218.42 86.88 -216.16 88.53 C-209.07 93.73 -202 98.94 -195.06 104.33 C-190.22 108.08 -185.3 111.66 -180.31 115.19 C-173.7 119.88 -167.23 124.77 -160.75 129.66 C-158.97 131 -157.19 132.34 -155.4 133.67 C-150.45 137.36 -145.55 141.05 -140.87 145.08 C-141.05 146.71 -141.26 148.33 -141.49 149.96 C-141.61 150.86 -141.72 151.77 -141.84 152.7 C-144.71 162.16 -151.78 170.6 -157.18 178.77 C-162.62 187.03 -167.93 195.33 -172.93 203.87 C-175.6 208.29 -178.49 212.54 -181.43 216.79 C-183.04 218.91 -183.04 218.91 -182.87 221.08 C-184.43 220.85 -186 220.6 -187.56 220.33 C-188.43 220.19 -189.3 220.05 -190.19 219.91 C-195.27 218.34 -198.37 214.74 -201.56 210.64 C-202.59 209.32 -202.59 209.32 -203.65 207.96 C-204.38 207.01 -205.11 206.06 -205.87 205.08 C-206.61 204.12 -207.35 203.16 -208.11 202.17 C-209.76 200.04 -211.39 197.9 -213.03 195.77 C-216.29 191.52 -219.58 187.3 -222.87 183.08 C-226.95 177.84 -231.02 172.6 -235.06 167.33 C-238.92 162.29 -242.83 157.29 -246.77 152.31 C-249.79 148.46 -252.78 144.59 -255.74 140.71 C-259.58 135.68 -263.55 130.78 -267.56 125.89 C-273.58 118.53 -279.02 110.99 -284.14 102.96 C-295.43 83.75 -295.43 83.75 -313.87 73.08 C-332.87 69.66 -356.02 68.39 -373.87 77.08 C-376.49 79.02 -376.49 79.02 -378.56 81.46 C-379.26 82.21 -379.97 82.96 -380.69 83.73 C-388.69 96.05 -388.64 107.97 -388.67 122.18 C-388.69 124.35 -388.72 126.53 -388.75 128.71 C-388.81 134.38 -388.84 140.06 -388.86 145.74 C-388.87 148.95 -388.89 152.17 -388.91 155.39 C-388.99 169.28 -389.01 183.18 -389 197.07 C-389 203.18 -389 209.29 -389 215.4 C-389.01 226.59 -389.01 237.79 -389 248.99 C-389 259.33 -389 269.66 -389 279.99 C-389 280.69 -389 281.38 -389 282.09 C-389 284.9 -389 287.71 -389 290.52 C-389.01 316.71 -389 342.9 -389 369.09 C-388.99 392.31 -388.99 415.52 -389 438.74 C-389 464.94 -389.01 491.14 -389 517.34 C-389 520.13 -389 522.93 -389 525.72 C-389 526.41 -389 527.09 -389 527.8 C-389 538.15 -389 548.49 -389 558.84 C-389.01 570.59 -389.01 582.33 -389 594.08 C-389 600.06 -389 606.05 -389 612.03 C-389 617.52 -389 623 -389 628.48 C-389 630.46 -389 632.44 -389 634.41 C-389.95 660.08 -389.95 660.08 -380.56 683.21 C-374.47 687.45 -368.64 688.53 -361.41 688.47 C-360.6 688.47 -359.78 688.48 -358.94 688.49 C-356.21 688.5 -353.47 688.49 -350.74 688.49 C-348.76 688.49 -346.78 688.5 -344.8 688.51 C-339.37 688.53 -333.93 688.53 -328.49 688.53 C-322.62 688.53 -316.76 688.55 -310.89 688.57 C-299.4 688.6 -287.91 688.61 -276.42 688.62 C-267.09 688.62 -257.75 688.64 -248.41 688.66 C-247.42 688.66 -247.42 688.66 -246.4 688.66 C-243.71 688.67 -241.01 688.67 -238.32 688.68 C-213.77 688.73 -189.23 688.76 -164.68 688.79 C-141.52 688.82 -118.35 688.85 -95.19 688.89 C-94.12 688.9 -94.12 688.9 -93.02 688.9 C-90.15 688.9 -87.27 688.91 -84.39 688.92 C-82.96 688.92 -81.53 688.92 -80.09 688.92 C-78.66 688.93 -77.23 688.93 -75.8 688.93 C-53.02 688.98 -30.23 689.01 -7.45 689.05 C-0.78 689.06 5.89 689.07 12.56 689.08 C26.58 689.1 40.6 689.13 54.63 689.14 C60.43 689.15 66.23 689.15 72.03 689.16 C77.34 689.17 82.64 689.18 87.95 689.18 C89.87 689.18 91.79 689.19 93.72 689.19 C96.33 689.2 98.94 689.2 101.55 689.2 C102.67 689.2 102.67 689.2 103.81 689.21 C113.41 689.19 120.68 688.67 128.13 682.08 C133.25 674.82 133.43 664.85 133.4 656.24 C133.41 654.83 133.41 654.83 133.41 653.39 C133.43 650.24 133.43 647.09 133.42 643.95 C133.43 641.66 133.44 639.38 133.45 637.1 C133.47 630.83 133.47 624.57 133.48 618.3 C133.49 612.24 133.5 606.17 133.52 600.11 C133.55 586.94 133.57 573.77 133.59 560.6 C133.61 549.07 133.63 537.54 133.65 526.01 C133.65 524.86 133.65 524.86 133.66 523.69 C133.66 520.58 133.67 517.48 133.68 514.37 C133.73 485.23 133.78 456.1 133.82 426.96 C133.86 401.09 133.91 375.23 133.97 349.36 C134.03 320.28 134.09 291.21 134.13 262.13 C134.14 259.03 134.14 255.93 134.15 252.82 C134.15 252.06 134.15 251.3 134.15 250.51 C134.17 238.99 134.19 227.48 134.22 215.96 C134.25 202.86 134.27 189.75 134.28 176.65 C134.29 169.97 134.3 163.28 134.32 156.6 C134.34 150.48 134.35 144.35 134.35 138.23 C134.35 136.02 134.35 133.81 134.36 131.6 C135.12 103.77 135.12 103.77 124.13 79.08 C113.12 70.36 95.41 72.83 82.23 73.08 C78.81 73.14 75.39 73.17 71.97 73.19 C69.78 73.23 67.59 73.26 65.39 73.3 C64.38 73.31 63.37 73.31 62.33 73.31 C54.68 73.52 49.68 75.51 44.27 80.96 C43.86 81.54 43.46 82.12 43.04 82.72 C42.57 83.37 42.1 84.03 41.62 84.7 C41.15 85.38 40.68 86.07 40.19 86.77 C39.16 88.21 38.12 89.64 37.08 91.08 C36.58 91.77 36.08 92.46 35.56 93.17 C32.39 97.41 28.76 101.23 25.13 105.08 C16.22 114.66 8.01 124.6 0.05 134.98 C-3.51 139.63 -7.13 144.25 -10.76 148.84 C-13.01 151.69 -15.23 154.55 -17.4 157.47 C-22.19 163.89 -27.3 169.61 -33.07 175.19 C-37.75 179.88 -41.67 185.23 -45.66 190.5 C-47.3 192.65 -48.96 194.77 -50.62 196.89 C-51.15 197.58 -51.68 198.27 -52.23 198.98 C-53.43 200.51 -54.63 202.04 -55.85 203.56 C-56.82 204.78 -56.82 204.78 -57.81 206.02 C-58.39 206.75 -58.98 207.48 -59.58 208.23 C-61.06 209.98 -61.06 209.98 -60.87 212.08 C-61.53 212.08 -62.19 212.08 -62.87 212.08 C-64.46 213.8 -64.46 213.8 -65.99 215.96 C-66.8 217.04 -66.8 217.04 -67.63 218.14 C-69.05 219.98 -69.05 219.98 -68.87 222.08 C-70.85 222.74 -72.83 223.4 -74.87 224.08 C-75.05 223.42 -75.24 222.76 -75.43 222.08 C-76.77 219.29 -77.92 217.81 -79.99 215.58 C-88.35 206.29 -93.91 194.53 -100 183.69 C-103.89 176.76 -107.91 169.92 -112.06 163.14 C-115.28 157.69 -117.23 153.45 -117.87 147.08 C-116.58 146.39 -116.58 146.39 -115.26 145.68 C-108.28 141.86 -101.86 137.75 -95.63 132.8 C-91.17 129.26 -86.52 126.12 -81.76 123 C-78.01 120.51 -74.39 117.87 -70.77 115.2 C-67.57 112.86 -64.35 110.56 -61.12 108.27 C-56.23 104.79 -51.38 101.27 -46.56 97.71 C-34.38 88.74 -21.96 80.11 -9.49 71.57 C-5.53 68.86 -1.6 66.1 2.31 63.32 C4.13 62.08 4.13 62.08 6.13 61.08 C6.13 60.42 6.13 59.76 6.13 59.08 C6.82 58.86 7.5 58.63 8.21 58.4 C11.9 56.73 14.79 54.47 17.94 51.96 C18.84 51.25 18.84 51.25 19.76 50.54 C21.22 49.39 22.68 48.24 24.13 47.08 C21 45.25 18.72 44.83 15.11 44.84 C13.58 44.83 13.58 44.83 12.03 44.82 C10.91 44.83 9.79 44.84 8.64 44.84 C7.45 44.84 6.27 44.84 5.04 44.84 C1.75 44.83 -1.55 44.84 -4.85 44.85 C-8.41 44.86 -11.96 44.86 -15.52 44.85 C-21.68 44.85 -27.84 44.86 -34 44.87 C-42.9 44.89 -51.81 44.89 -60.72 44.89 C-75.17 44.9 -89.62 44.91 -104.07 44.93 C-118.11 44.95 -132.15 44.96 -146.19 44.97 C-147.48 44.97 -147.48 44.97 -148.81 44.97 C-153.15 44.98 -157.49 44.98 -161.83 44.98 C-197.84 45 -233.85 45.04 -269.87 45.08 Z M-358.87 691.08 C-358.87 691.41 -358.87 691.74 -358.87 692.08 C-204.76 692.08 -50.65 692.08 108.13 692.08 C108.13 691.75 108.13 691.42 108.13 691.08 C-45.98 691.08 -200.09 691.08 -358.87 691.08 Z " fill="#000102" transform="translate(766.8678283691406,276.9184875488281)"/>
<path d="M0 0 C2.61 2.02 4.79 4.13 7 6.57 C7.78 7.37 8.55 8.18 9.35 9.01 C14.16 14.42 16.15 18.36 16 25.57 C16.05 26.39 16.1 27.22 16.14 28.07 C16.44 34.93 15.6 40.25 11.3 45.73 C6.95 50.43 3.15 52.81 -3 54.57 C-3 55.23 -3 55.89 -3 56.57 C-8.28 56.57 -13.56 56.57 -19 56.57 C-19 55.91 -19 55.25 -19 54.57 C-19.56 54.42 -20.13 54.27 -20.72 54.12 C-28.2 51.95 -32.57 48.63 -37.37 42.57 C-40.96 35.61 -41.06 25.26 -38.98 17.79 C-35.45 9.79 -30 3.22 -22 -0.43 C-15.27 -2.68 -6.48 -3.1 0 0 Z " fill="#000102" transform="translate(647.99609375,874.43359375)"/>
<path d="M0 0 C6.8 6.31 11.01 13 11.55 22.37 C11.64 32.09 9.32 38.67 2.68 45.75 C-3.05 51.1 -8 51.74 -15.65 51.55 C-25.04 50.95 -32.3 47.67 -39.55 41.61 C-45.75 34.27 -45.32 25.52 -44.69 16.42 C-43.76 8.7 -38.43 3.81 -32.72 -0.97 C-21.87 -8.89 -10.32 -8.2 0 0 Z " fill="#000102" transform="translate(652.4453125,716.62890625)"/>
<path d="M0 0 C6.54 4.57 12.34 10.33 15.95 17.53 C17.49 26.37 18.43 35.49 13.95 43.53 C10.07 48.88 6.15 52.82 -0.43 54.28 C-1.3 54.36 -2.16 54.45 -3.05 54.53 C-3.05 55.52 -3.05 56.51 -3.05 57.53 C-7.67 57.53 -12.29 57.53 -17.05 57.53 C-16.72 56.21 -16.39 54.89 -16.05 53.53 C-17.02 53.49 -17.99 53.45 -18.99 53.41 C-26.52 52.31 -32.28 46.8 -36.96 41.14 C-40.85 35.4 -39.67 25.74 -38.7 19.12 C-36.59 12.22 -30.71 5.94 -24.79 2.04 C-17.06 -1.89 -8.12 -3.91 0 0 Z " fill="#000102" transform="translate(647.0546875,525.46875)"/>
<path d="M0 0 C45.54 -0.02 91.09 -0.03 136.63 -0.04 C137.3 -0.04 137.98 -0.04 138.67 -0.04 C153.31 -0.05 167.94 -0.05 182.58 -0.05 C189.76 -0.05 196.94 -0.05 204.11 -0.05 C204.83 -0.06 205.54 -0.06 206.28 -0.06 C229.45 -0.06 252.62 -0.07 275.79 -0.08 C299.59 -0.09 323.39 -0.09 347.19 -0.09 C350.55 -0.09 353.91 -0.09 357.27 -0.09 C357.93 -0.09 358.59 -0.1 359.27 -0.1 C370.59 -0.1 381.91 -0.1 393.22 -0.11 C403.27 -0.11 413.32 -0.11 423.36 -0.11 C429.17 -0.11 434.97 -0.11 440.78 -0.12 C446.08 -0.12 451.39 -0.12 456.69 -0.12 C458.62 -0.12 460.55 -0.12 462.48 -0.12 C465.08 -0.13 467.68 -0.13 470.29 -0.12 C471.05 -0.13 471.81 -0.13 472.6 -0.13 C477.77 -0.11 477.77 -0.11 480 1 C480 1.99 480 2.98 480 4 C321.27 4 162.54 4 -1 4 C-0.67 2.68 -0.34 1.36 0 0 Z " fill="#475A62" transform="translate(402,995)"/>
<path d="M0 0 C1.79 -0.03 3.58 -0.05 5.38 -0.06 C6.37 -0.07 7.37 -0.09 8.4 -0.1 C11 0 11 0 13 1 C13 1.99 13 2.98 13 4 C8.38 4 3.76 4 -1 4 C-0.67 2.68 -0.34 1.36 0 0 Z " fill="#475A62" transform="translate(631,579)"/>
<path d="M0 0 C2.12 -0.03 4.25 -0.05 6.38 -0.06 C7.56 -0.07 8.74 -0.09 9.96 -0.1 C13 0 13 0 15 1 C15 1.66 15 2.32 15 3 C9.72 3 4.44 3 -1 3 C-0.67 2.01 -0.34 1.02 0 0 Z " fill="#475A62" transform="translate(630,928)"/>
<path d="" fill="#000102" transform="translate(0,0)"/>
</svg>
