<?xml version="1.0" encoding="UTF-8"?>
<!-- Generator: visioncortex VTracer 0.6.3 -->
<svg version="1.1" xmlns="http://www.w3.org/2000/svg" width="1280" height="1280">
<path d="M0 0 C1.13 -0 2.25 -0.01 3.42 -0.01 C5.28 -0.01 5.28 -0.01 7.18 -0 C8.49 -0 9.79 -0.01 11.13 -0.01 C14.72 -0.01 18.3 -0.01 21.88 -0.01 C25.63 -0 29.37 -0.01 33.11 -0.01 C39.4 -0.01 45.69 -0.01 51.98 -0 C59.25 0 66.53 0 73.81 -0.01 C80.05 -0.01 86.29 -0.01 92.53 -0.01 C96.26 -0.01 99.99 -0.01 103.72 -0.01 C107.88 -0.01 112.03 -0.01 116.19 -0 C117.43 -0 118.68 -0.01 119.96 -0.01 C121.08 -0.01 122.21 -0 123.37 0 C124.85 0 124.85 0 126.35 0 C128.69 0.13 128.69 0.13 130.69 1.13 C132.63 1.34 134.58 1.5 136.53 1.63 C138.28 1.75 138.28 1.75 140.05 1.88 C142.52 2.04 144.99 2.21 147.45 2.38 C148.61 2.46 149.77 2.54 150.97 2.63 C152.04 2.7 153.11 2.77 154.22 2.85 C156.69 3.13 156.69 3.13 157.69 4.13 C159.19 4.17 160.69 4.16 162.19 4.13 C163.69 4.09 165.19 4.08 166.69 4.13 C167.02 4.46 167.35 4.79 167.69 5.13 C168.8 5.13 169.91 5.13 171.06 5.13 C174.69 5.13 174.69 5.13 177.69 6.13 C180.55 6.66 183.42 7.14 186.29 7.63 C188.69 8.13 188.69 8.13 189.69 9.13 C190.41 9.11 191.13 9.09 191.87 9.06 C195.17 9.14 197.56 10.06 200.69 11.13 C203.13 11.65 205.57 12.12 208.03 12.56 C211.3 13.26 214.47 14.19 217.69 15.13 C219.98 15.74 222.27 16.34 224.56 16.94 C230.27 18.45 235.95 20.04 241.62 21.69 C242.31 21.89 242.99 22.08 243.7 22.29 C247.81 23.5 251.83 24.88 255.83 26.42 C261.31 28.5 266.92 30.2 272.52 31.92 C278.62 33.79 284.58 35.77 290.47 38.23 C292.66 39.12 294.87 39.85 297.12 40.56 C301.35 41.94 305.3 43.73 309.33 45.61 C313.6 47.54 317.92 49.33 322.25 51.13 C328.24 53.62 334.13 56.19 339.87 59.22 C341.84 60.26 341.84 60.26 344.69 61.13 C344.69 61.79 344.69 62.45 344.69 63.13 C345.55 63.21 346.42 63.29 347.31 63.38 C350.49 64.08 352.27 65.01 354.87 66.9 C357.16 68.45 359.55 69.71 362 71 C366.31 73.32 370.33 75.85 374.35 78.62 C377.87 80.9 381.58 82.81 385.3 84.73 C387.69 86.13 387.69 86.13 389.07 87.55 C391.06 89.5 393.33 90.69 395.76 92.03 C399.05 93.9 402.17 96.02 405.31 98.13 C405.95 98.55 406.59 98.98 407.26 99.42 C410.01 101.25 412.65 103.09 415.21 105.19 C417.65 107.1 420.17 108.58 422.87 110.07 C425.93 111.85 428.76 113.92 431.62 116 C432.54 116.66 432.54 116.66 433.48 117.34 C437.3 120.1 441.11 122.89 444.87 125.75 C446.21 126.77 447.57 127.77 448.94 128.75 C449.68 129.29 450.42 129.82 451.19 130.38 C452.19 131.1 452.19 131.1 453.22 131.83 C453.7 132.26 454.19 132.69 454.69 133.13 C454.69 133.79 454.69 134.45 454.69 135.13 C455.68 135.46 456.67 135.79 457.69 136.13 C457.69 136.79 457.69 137.45 457.69 138.13 C458.37 138.31 459.05 138.5 459.75 138.69 C463.19 140.37 465.18 142.46 467.8 145.2 C470.91 148.38 474.32 151.22 477.69 154.13 C479.8 156 481.91 157.87 484.02 159.74 C485.65 161.2 485.65 161.2 487.69 162.13 C487.69 162.79 487.69 163.45 487.69 164.13 C488.23 164.37 488.78 164.61 489.35 164.86 C499.36 170.29 507.72 179.98 515.69 187.94 C516.59 188.85 517.5 189.75 518.44 190.69 C530.69 203.04 530.69 203.04 530.69 206.13 C531.68 206.46 532.67 206.79 533.69 207.13 C533.75 208.08 533.81 209.02 533.87 210 C534.14 211.03 534.41 212.06 534.69 213.13 C535.4 213.4 536.12 213.68 536.86 213.96 C540.59 215.5 542.94 218.02 545.69 220.88 C546.19 221.39 546.7 221.9 547.22 222.43 C551.67 226.96 555.83 231.42 558.69 237.13 C559.24 237.65 559.79 238.17 560.36 238.71 C563.6 242.07 566.18 245.82 568.87 249.63 C570.04 251.25 571.2 252.88 572.36 254.51 C572.93 255.3 573.49 256.09 574.08 256.9 C576.19 259.83 578.37 262.7 580.56 265.56 C584.59 270.9 588.17 276.44 591.69 282.13 C592.85 283.96 594.02 285.8 595.19 287.63 C596.06 289.01 596.06 289.01 596.96 290.41 C598.05 292.13 599.15 293.85 600.26 295.56 C604.81 302.63 609.13 309.82 613.42 317.05 C615.52 320.57 617.61 324.07 619.91 327.46 C621.44 329.75 622.69 331.96 623.87 334.44 C626.19 339.18 628.64 343.84 631.12 348.5 C636.31 358.27 641.31 367.99 645.46 378.25 C646.63 381 647.93 383.61 649.31 386.25 C651.4 390.31 652.77 394.3 653.91 398.71 C654.87 401.69 656.27 404.33 657.69 407.13 C661.45 416.6 664.29 426.34 667.1 436.13 C667.95 439.04 668.85 441.92 669.75 444.81 C672.7 454.37 675.47 463.97 677.84 473.69 C678.5 476.36 679.18 479.03 679.88 481.69 C682.25 490.82 684.33 499.88 685.7 509.22 C686.16 512.32 686.71 515.2 687.71 518.18 C688.84 521.59 689.27 524.81 689.69 528.38 C690.18 532.52 690.76 536.54 691.65 540.61 C693.11 547.71 693.62 554.92 694.25 562.13 C694.44 564.25 694.62 566.37 694.82 568.5 C694.99 570.4 695.16 572.31 695.33 574.21 C695.51 577.06 695.51 577.06 696.69 579.13 C696.93 581.65 697.11 584.15 697.24 586.68 C697.28 587.5 697.32 588.33 697.37 589.17 C697.93 601.71 697.84 614.27 697.82 626.82 C697.81 630.52 697.81 634.21 697.82 637.9 C697.86 671.08 697.86 671.08 696.69 681.13 C696.36 681.46 696.03 681.79 695.69 682.13 C695.39 684.68 695.16 687.22 694.97 689.78 C694.9 690.56 694.84 691.34 694.78 692.14 C694.58 694.63 694.38 697.13 694.19 699.63 C693.99 702.1 693.79 704.56 693.59 707.03 C693.47 708.57 693.35 710.11 693.23 711.64 C692.93 715.47 692.59 719.29 692.2 723.11 C692.13 723.85 692.05 724.6 691.98 725.37 C691.69 727.13 691.69 727.13 690.69 728.13 C690.41 729.66 690.19 731.21 690 732.76 C689.82 734.19 689.82 734.19 689.63 735.64 C689.38 737.65 689.13 739.65 688.88 741.65 C688.15 747.29 687.13 752.63 685.69 758.13 C685.19 760.69 684.71 763.25 684.25 765.81 C682.93 772.97 681.4 780.05 679.69 787.13 C679.5 787.94 679.31 788.74 679.11 789.58 C675.44 805.27 670.82 820.54 665.76 835.83 C664.3 840.31 662.94 844.81 661.59 849.32 C660.55 852.56 659.24 855.58 657.8 858.66 C656.42 861.72 655.18 864.82 653.94 867.94 C653.68 868.57 653.43 869.2 653.17 869.85 C651.69 873.56 650.24 877.28 648.8 881.01 C645.2 890.31 641.33 899.17 636.45 907.87 C634.64 911.22 633.17 914.62 631.69 918.13 C625.9 930.21 619.43 941.99 612.72 953.58 C611.26 956.11 609.84 958.65 608.43 961.2 C604.22 968.83 599.86 976.1 594.69 983.13 C592.99 985.48 591.31 987.83 589.62 990.19 C589.19 990.79 588.76 991.4 588.31 992.02 C586 995.25 583.74 998.5 581.56 1001.81 C575.48 1011.03 568.74 1019.64 561.69 1028.13 C560.18 1029.96 558.68 1031.79 557.19 1033.63 C556.44 1034.54 555.69 1035.45 554.92 1036.39 C553.47 1038.17 552.03 1039.95 550.61 1041.74 C541.27 1053.41 530.88 1064.18 520.13 1074.56 C517.31 1077.32 515.45 1079.58 513.69 1083.13 C512.37 1083.83 511.03 1084.49 509.69 1085.13 C508 1086.83 508 1086.83 506.44 1088.81 C503.51 1092.27 500.44 1095.22 496.99 1098.13 C495.2 1099.68 493.45 1101.25 491.72 1102.87 C491.2 1103.35 490.68 1103.84 490.14 1104.34 C489.11 1105.3 488.09 1106.26 487.07 1107.22 C478.57 1115.13 478.57 1115.13 474.69 1115.13 C474.64 1115.7 474.6 1116.28 474.56 1116.88 C473.25 1120.25 470.69 1121.18 467.69 1123.13 C465.49 1124.73 463.34 1126.4 461.19 1128.06 C460.64 1128.48 460.1 1128.9 459.54 1129.33 C456.86 1131.39 454.24 1133.5 451.64 1135.67 C444.69 1141.45 437.39 1146.74 429.82 1151.67 C427.57 1153.21 425.45 1154.86 423.31 1156.56 C418.34 1160.49 413.07 1163.81 407.69 1167.13 C406.63 1167.78 405.57 1168.43 404.48 1169.1 C402.29 1170.45 400.09 1171.8 397.89 1173.14 C394.86 1175.02 391.87 1176.94 388.87 1178.88 C385.32 1181.15 381.77 1183.15 377.97 1184.97 C370.88 1188.55 363.84 1192.52 357.37 1197.13 C352.48 1200.51 347.11 1202.87 341.71 1205.32 C337.88 1207.07 334.28 1208.91 330.69 1211.13 C321.92 1216.02 313.14 1220.72 303.69 1224.13 C302.83 1224.47 301.98 1224.82 301.1 1225.18 C296.2 1227.11 291.8 1228.32 286.56 1228.88 C280.92 1229.61 276.68 1231.39 271.69 1233.94 C262.97 1238.33 254.25 1240.5 244.73 1242.49 C240.09 1243.46 235.46 1244.49 230.83 1245.51 C228.44 1246.04 226.05 1246.56 223.66 1247.07 C222.56 1247.31 221.47 1247.55 220.34 1247.79 C219.37 1248 218.4 1248.21 217.4 1248.43 C214.71 1249.12 212.26 1250.08 209.69 1251.13 C207.59 1251.47 205.48 1251.76 203.37 1252 C195.28 1253.08 187.56 1255.04 179.69 1257.13 C163.17 1261.5 163.17 1261.5 155.51 1261.95 C153.59 1262.03 153.59 1262.03 151.69 1263.13 C149.24 1263.41 146.81 1263.65 144.35 1263.85 C143.24 1263.94 143.24 1263.94 142.11 1264.04 C139.7 1264.24 137.29 1264.43 134.87 1264.63 C134.06 1264.69 133.24 1264.76 132.41 1264.83 C121.78 1265.71 111.16 1266.49 100.5 1266.84 C96.46 1266.88 96.46 1266.88 92.69 1268.13 C90.45 1268.22 88.21 1268.25 85.97 1268.26 C85.28 1268.26 84.59 1268.26 83.88 1268.26 C81.6 1268.27 79.31 1268.26 77.03 1268.26 C75.45 1268.26 73.86 1268.26 72.28 1268.26 C68.95 1268.26 65.63 1268.26 62.31 1268.26 C58.05 1268.25 53.78 1268.25 49.52 1268.26 C46.25 1268.26 42.97 1268.26 39.7 1268.26 C38.13 1268.26 36.56 1268.26 34.99 1268.26 C32.79 1268.27 30.59 1268.26 28.4 1268.26 C27.15 1268.26 25.9 1268.25 24.61 1268.25 C21.69 1268.13 21.69 1268.13 19.69 1267.13 C16.95 1266.87 14.23 1266.65 11.49 1266.48 C9.78 1266.36 8.08 1266.24 6.38 1266.12 C3.71 1265.94 1.04 1265.75 -1.63 1265.58 C-11.65 1264.92 -21.36 1263.99 -31.17 1261.82 C-34.19 1261.15 -37.19 1260.64 -40.25 1260.19 C-49.61 1258.68 -58.79 1256.17 -67.88 1253.5 C-72.14 1252.3 -76.29 1251.74 -80.69 1251.25 C-87.07 1250.48 -92.5 1248.84 -98.41 1246.35 C-103.56 1244.18 -108.27 1242.89 -113.81 1242.25 C-123.98 1240.87 -133.42 1238.4 -142.49 1233.55 C-151.01 1229.26 -160.09 1225.7 -169.19 1222.85 C-171.36 1222.11 -173.42 1221.24 -175.51 1220.29 C-176.29 1219.94 -177.08 1219.58 -177.89 1219.22 C-179.09 1218.68 -179.09 1218.68 -180.31 1218.13 C-181.8 1217.47 -183.29 1216.82 -184.78 1216.16 C-191.9 1213.02 -198.99 1209.87 -205.92 1206.33 C-208.71 1204.93 -211.54 1203.62 -214.38 1202.31 C-215.47 1201.81 -216.56 1201.31 -217.68 1200.79 C-219.59 1199.92 -221.5 1199.04 -223.41 1198.18 C-238.7 1191.23 -238.7 1191.23 -245.54 1186.36 C-248 1184.65 -250.62 1183.42 -253.31 1182.13 C-258.84 1179.22 -264.05 1176.03 -269.21 1172.52 C-271.51 1170.99 -273.9 1169.66 -276.32 1168.31 C-292.54 1158.72 -307.51 1146.73 -322.31 1135.13 C-323.94 1133.86 -325.56 1132.58 -327.19 1131.31 C-327.91 1130.75 -328.63 1130.19 -329.37 1129.61 C-330.97 1128.39 -332.64 1127.25 -334.31 1126.13 C-334.31 1125.47 -334.31 1124.81 -334.31 1124.13 C-334.86 1123.88 -335.42 1123.64 -335.98 1123.39 C-342.3 1119.97 -347.94 1114.68 -352.88 1109.5 C-355.35 1106.92 -357.88 1105.01 -360.88 1103.06 C-366.41 1099.35 -370.88 1094.78 -375.49 1090.01 C-377.83 1087.6 -380.03 1085.34 -382.73 1083.33 C-383.51 1082.73 -383.51 1082.73 -384.31 1082.13 C-384.31 1081.47 -384.31 1080.81 -384.31 1080.13 C-384.87 1079.9 -385.42 1079.67 -385.99 1079.44 C-388.99 1077.75 -391.06 1075.62 -393.49 1073.18 C-393.98 1072.69 -394.47 1072.2 -394.97 1071.7 C-396 1070.67 -397.03 1069.63 -398.06 1068.59 C-399.61 1067.02 -401.16 1065.47 -402.72 1063.91 C-407.58 1059.03 -412.33 1054.11 -416.81 1048.87 C-418.26 1047.19 -419.75 1045.56 -421.26 1043.93 C-421.95 1043.2 -421.95 1043.2 -422.64 1042.45 C-423.56 1041.48 -424.48 1040.5 -425.39 1039.53 C-428.43 1036.26 -430.85 1032.84 -433.31 1029.13 C-435.37 1026.52 -437.5 1023.99 -439.63 1021.44 C-444.1 1016.02 -448.14 1010.57 -451.79 1004.55 C-453.27 1002.19 -454.88 1000.05 -456.63 997.88 C-461.21 992.14 -465.16 985.98 -469.18 979.84 C-470.64 977.63 -472.14 975.44 -473.63 973.25 C-476 969.7 -478.08 966.04 -480.11 962.29 C-481.22 960.29 -482.4 958.37 -483.63 956.44 C-493.06 941.5 -501.51 925.69 -508.75 909.58 C-510.36 906.02 -512.04 902.49 -513.73 898.97 C-516.76 892.64 -519.75 886.35 -522.24 879.79 C-523.12 877.61 -524.05 875.5 -525.04 873.37 C-530.4 861.83 -534.48 850.07 -538.38 837.98 C-539.99 833.08 -541.73 828.23 -543.5 823.39 C-544.73 819.98 -545.65 816.68 -546.31 813.13 C-546.86 811.37 -547.42 809.62 -548 807.88 C-551.05 798.13 -553.24 788.16 -555.57 778.22 C-556.33 775.07 -557.12 771.94 -557.93 768.8 C-559.01 764.51 -559.85 760.32 -560.44 755.94 C-560.66 752.22 -560.66 752.22 -562.31 749.13 C-562.31 747.46 -562.31 745.79 -562.31 744.13 C-562.64 743.8 -562.97 743.47 -563.31 743.13 C-563.69 740.82 -564.01 738.51 -564.31 736.19 C-564.8 731.5 -564.8 731.5 -566.31 727.13 C-566.35 724.79 -566.36 722.46 -566.31 720.13 C-566.64 720.13 -566.97 720.13 -567.31 720.13 C-567.31 716.83 -567.31 713.53 -567.31 710.13 C-567.64 710.13 -567.97 710.13 -568.31 710.13 C-568.97 699.9 -569.63 689.67 -570.31 679.13 C-570.64 679.13 -570.97 679.13 -571.31 679.13 C-571.34 667.43 -571.36 655.73 -571.37 644.03 C-571.37 638.59 -571.38 633.16 -571.39 627.73 C-571.4 622.49 -571.41 617.25 -571.41 612.01 C-571.41 610.01 -571.41 608.01 -571.42 606.01 C-571.43 603.21 -571.43 600.41 -571.43 597.62 C-571.43 596.78 -571.43 595.95 -571.44 595.09 C-571.43 589.36 -571.43 589.36 -570.31 587.13 C-570.16 585.2 -570.06 583.27 -569.99 581.34 C-569.26 565.37 -567.78 549.69 -565.38 533.88 C-565.19 532.6 -565.19 532.6 -564.99 531.3 C-563.7 522.77 -562.28 514.38 -560.06 506.03 C-558.3 499.18 -556.99 492.21 -555.56 485.29 C-554.33 479.38 -552.98 473.66 -550.97 467.97 C-550.14 465.64 -549.5 463.27 -548.88 460.88 C-545.28 447.46 -541 434.14 -536.08 421.14 C-535.33 419.18 -534.61 417.21 -533.88 415.23 C-531.31 408.24 -528.62 401.37 -525.45 394.62 C-524.36 392.23 -523.39 389.83 -522.44 387.38 C-517.75 375.46 -511.85 363.97 -506.28 352.45 C-505.59 351.02 -504.9 349.59 -504.22 348.16 C-500.61 340.63 -496.99 333.22 -492.55 326.14 C-490.95 323.54 -489.63 320.83 -488.29 318.09 C-482.61 306.63 -475.74 295.24 -467.86 285.15 C-465.83 282.5 -463.96 279.75 -462.06 277 C-454.56 266.1 -446.88 255.34 -438.8 244.86 C-438.35 244.28 -437.9 243.69 -437.44 243.09 C-436.54 241.93 -435.64 240.77 -434.74 239.61 C-432.85 237.16 -431.03 234.7 -429.31 232.13 C-428.65 232.13 -427.99 232.13 -427.31 232.13 C-427.07 231.42 -426.83 230.72 -426.58 229.99 C-425.13 226.7 -423.3 224.17 -421.13 221.31 C-420.39 220.34 -419.65 219.36 -418.9 218.36 C-412.74 210.53 -405.81 203.46 -398.78 196.42 C-397.77 195.41 -396.77 194.4 -395.76 193.39 C-393.66 191.29 -391.56 189.19 -389.46 187.09 C-386.78 184.41 -384.11 181.72 -381.44 179.03 C-379.37 176.95 -377.29 174.87 -375.21 172.8 C-374.22 171.81 -373.24 170.82 -372.25 169.82 C-370.88 168.44 -369.49 167.06 -368.11 165.68 C-367.32 164.89 -366.54 164.11 -365.73 163.3 C-363.09 160.93 -360.29 159.07 -357.31 157.13 C-355.62 155.48 -353.96 153.81 -352.31 152.13 C-335.47 136.13 -335.47 136.13 -330.31 136.13 C-330.26 135.54 -330.2 134.95 -330.14 134.35 C-328.95 131.14 -327.03 130.35 -324.13 128.63 C-323.13 128.02 -322.14 127.42 -321.11 126.8 C-320.19 126.25 -319.27 125.7 -318.31 125.13 C-314.35 122.65 -314.35 122.65 -310.81 119.63 C-308.59 117.41 -305.93 115.85 -303.31 114.13 C-302.12 113.33 -300.92 112.53 -299.73 111.72 C-287.84 103.77 -287.84 103.77 -282.44 100.46 C-280.1 99 -277.8 97.49 -275.49 95.98 C-269.63 92.18 -263.72 88.57 -257.63 85.15 C-253.98 83.09 -250.38 80.96 -246.81 78.77 C-235.19 71.66 -222.99 65.87 -210.66 60.12 C-205.95 57.92 -201.31 55.62 -196.69 53.25 C-188.91 49.28 -180.9 45.84 -172.85 42.45 C-171.91 42.05 -170.96 41.64 -169.98 41.23 C-168.7 40.69 -168.7 40.69 -167.4 40.15 C-165.16 39.19 -165.16 39.19 -163.31 37.13 C-160.52 36.09 -157.73 35.14 -154.9 34.23 C-154.05 33.95 -153.2 33.68 -152.32 33.39 C-150.51 32.81 -148.71 32.22 -146.9 31.64 C-144.18 30.77 -141.47 29.89 -138.75 29 C-128.67 25.73 -118.58 22.77 -108.31 20.13 C-105.96 19.48 -103.61 18.82 -101.26 18.15 C-93.32 15.9 -85.37 13.89 -77.31 12.13 C-75.1 11.64 -72.88 11.14 -70.66 10.65 C-69.09 10.3 -67.52 9.95 -65.95 9.61 C-62.68 8.89 -59.43 8.16 -56.19 7.31 C-41.19 3.42 -25.32 2.39 -9.9 1.4 C-6.34 1.03 -3.72 0 0 0 Z M124.69 1.13 C128.69 2.13 128.69 2.13 128.69 2.13 Z M25.75 58.06 C24.41 58.13 24.41 58.13 23.04 58.2 C20.52 58.32 17.99 58.45 15.47 58.59 C14.33 58.65 14.33 58.65 13.17 58.71 C9.3 58.88 9.3 58.88 5.69 60.13 C3.16 60.47 0.65 60.77 -1.88 61.03 C-3.44 61.2 -4.99 61.37 -6.54 61.54 C-8.98 61.8 -11.42 62.06 -13.87 62.32 C-16.23 62.57 -18.59 62.83 -20.95 63.09 C-21.67 63.17 -22.38 63.24 -23.12 63.32 C-28 63.86 -32.57 64.87 -37.31 66.13 C-40.3 66.66 -43.29 67.11 -46.29 67.56 C-48.97 68.06 -51.53 68.73 -54.15 69.51 C-59.19 70.95 -64.3 72.2 -69.38 73.5 C-78.73 75.92 -88.06 78.34 -97.31 81.13 C-97.96 81.32 -98.6 81.51 -99.27 81.71 C-106.66 83.94 -113.96 86.26 -121.1 89.23 C-125.7 91.1 -130.45 92.55 -135.19 94.03 C-141.06 95.9 -146.46 98.07 -151.92 100.92 C-154.19 102.06 -156.45 103.02 -158.81 103.94 C-172.1 109.13 -184.84 115.23 -197.31 122.13 C-199.06 123.09 -200.81 124.04 -202.56 125 C-203.42 125.47 -204.27 125.94 -205.15 126.43 C-207.76 127.83 -210.38 129.19 -213.01 130.54 C-213.85 130.98 -214.69 131.42 -215.56 131.86 C-217.23 132.73 -218.91 133.59 -220.59 134.44 C-225.38 136.92 -229.25 139.59 -233.31 143.13 C-235.26 144.24 -235.26 144.24 -237 145 C-242.41 147.57 -247.32 150.85 -252.31 154.13 C-253.28 154.75 -254.24 155.37 -255.23 156.01 C-261.12 159.85 -266.76 163.93 -272.3 168.26 C-276.92 171.87 -281.67 175.28 -286.47 178.64 C-294.97 184.62 -302.61 191.68 -310.31 198.63 C-316.21 203.94 -322.12 209.17 -328.31 214.13 C-335.19 219.83 -341.49 226.12 -347.81 232.43 C-349.57 234.19 -351.34 235.95 -353.11 237.7 C-354.25 238.83 -355.38 239.97 -356.52 241.1 C-357.3 241.87 -357.3 241.87 -358.1 242.66 C-361.33 245.91 -363.83 249.26 -366.31 253.13 C-367.2 254.19 -368.12 255.24 -369.08 256.24 C-369.58 256.76 -370.07 257.28 -370.58 257.82 C-371.09 258.35 -371.6 258.89 -372.13 259.44 C-376.84 264.45 -381.2 269.6 -385.31 275.13 C-389.31 280.13 -389.31 280.13 -390.83 282.01 C-395 287.26 -398.77 292.7 -402.45 298.31 C-404.01 300.68 -405.63 302.97 -407.31 305.25 C-409.5 307.82 -409.5 307.82 -409.31 310.13 C-409.97 310.13 -410.63 310.13 -411.31 310.13 C-412.67 312.04 -412.67 312.04 -414 314.5 C-416.08 318.1 -418.25 321.52 -420.69 324.88 C-424.59 330.37 -427.86 336.19 -431.15 342.07 C-432.43 344.33 -433.74 346.58 -435.06 348.83 C-439.67 356.7 -444.2 364.52 -448.1 372.78 C-449.31 375.13 -449.31 375.13 -450.86 377.19 C-452.36 379.19 -453.14 380.91 -454 383.25 C-455.95 388.31 -458.1 393.25 -460.31 398.19 C-460.65 398.93 -460.98 399.68 -461.32 400.44 C-461.99 401.93 -462.65 403.41 -463.31 404.89 C-466.39 411.76 -469.43 418.64 -472.38 425.56 C-472.72 426.35 -473.05 427.13 -473.4 427.93 C-475.45 432.75 -477.12 437.57 -478.57 442.6 C-479.84 446.9 -481.31 451.13 -482.75 455.38 C-485.5 463.57 -488.07 471.78 -490.31 480.13 C-490.51 480.85 -490.7 481.56 -490.9 482.3 C-492.19 487.13 -493.46 491.96 -494.71 496.8 C-495.1 498.29 -495.49 499.79 -495.88 501.28 C-498.16 510 -500.07 518.71 -501.66 527.58 C-502.17 530.33 -502.73 533.04 -503.38 535.75 C-504.56 540.84 -505.17 546.01 -505.85 551.19 C-506.31 554.13 -506.31 554.13 -507.31 556.13 C-507.6 558.24 -507.83 560.35 -508.03 562.47 C-508.16 563.77 -508.29 565.07 -508.42 566.42 C-508.55 567.82 -508.68 569.22 -508.81 570.63 C-508.88 571.33 -508.95 572.03 -509.02 572.75 C-509.89 581.86 -510.67 590.97 -511.02 600.12 C-511.22 604.94 -511.22 604.94 -512.31 607.13 C-512.41 608.72 -512.44 610.32 -512.44 611.91 C-512.45 612.91 -512.45 613.9 -512.45 614.93 C-512.45 616 -512.45 617.08 -512.45 618.19 C-512.45 619.29 -512.45 620.39 -512.45 621.53 C-512.45 623.86 -512.45 626.2 -512.44 628.53 C-512.44 632.11 -512.44 635.69 -512.45 639.28 C-512.45 641.54 -512.45 643.8 -512.45 646.06 C-512.45 647.14 -512.45 648.22 -512.45 649.33 C-512.45 650.32 -512.45 651.32 -512.44 652.34 C-512.44 653.22 -512.44 654.1 -512.44 655 C-512.45 657.18 -512.45 657.18 -511.31 659.13 C-511.05 661.83 -510.84 664.51 -510.67 667.22 C-510.55 668.91 -510.43 670.6 -510.31 672.29 C-510.12 674.93 -509.94 677.57 -509.77 680.22 C-509.05 690.97 -507.95 701.51 -506.02 712.12 C-505.08 717.28 -504.46 722.48 -503.84 727.7 C-503.35 730.87 -502.62 733.91 -501.82 737.01 C-500.93 740.76 -500.43 744.57 -499.88 748.38 C-498.75 755.77 -497.29 762.91 -495.31 770.13 C-494.91 771.67 -494.52 773.22 -494.12 774.76 C-493.68 776.45 -493.25 778.13 -492.81 779.81 C-492.61 780.6 -492.41 781.38 -492.2 782.19 C-490.97 786.91 -489.54 791.51 -487.97 796.12 C-487.18 798.54 -486.6 800.96 -486.06 803.44 C-481.75 821.12 -474.55 838.46 -467.31 855.13 C-464.58 861.44 -464.58 861.44 -463.52 864.23 C-459.29 875.3 -453.67 885.81 -447.94 896.17 C-446.29 899.17 -444.69 902.2 -443.1 905.24 C-438.68 913.64 -434.11 921.93 -429.31 930.13 C-428.83 930.95 -428.35 931.78 -427.86 932.63 C-426.01 935.62 -424.02 938.49 -422 941.38 C-416.91 948.69 -411.89 956 -407.39 963.69 C-407.04 964.17 -406.68 964.64 -406.31 965.13 C-405.65 965.13 -404.99 965.13 -404.31 965.13 C-403.94 966.21 -403.94 966.21 -403.56 967.32 C-402.2 970.37 -400.58 972.51 -398.44 975.06 C-396.25 977.69 -394.23 980.25 -392.36 983.11 C-390.28 986.18 -388.03 988.79 -385.5 991.5 C-384.19 992.93 -384.19 992.93 -382.85 994.38 C-381.6 995.74 -381.6 995.74 -380.31 997.13 C-376.51 1001.31 -373.21 1005.26 -370.31 1010.13 C-367.86 1012.92 -367.86 1012.92 -365.31 1015.13 C-364.65 1015.13 -363.99 1015.13 -363.31 1015.13 C-363.04 1016.15 -363.04 1016.15 -362.75 1017.19 C-361.05 1020.67 -358.91 1022.71 -356.12 1025.35 C-354.44 1027 -353.01 1028.7 -351.56 1030.56 C-350.82 1031.41 -350.08 1032.26 -349.31 1033.13 C-348.32 1033.13 -347.33 1033.13 -346.31 1033.13 C-346.31 1033.79 -346.31 1034.45 -346.31 1035.13 C-345.65 1035.13 -344.99 1035.13 -344.31 1035.13 C-343.26 1036.64 -343.26 1036.64 -342 1038.81 C-339.07 1043.38 -335.64 1047.08 -331.81 1050.88 C-331.27 1051.42 -330.72 1051.96 -330.16 1052.52 C-324.43 1058.9 -324.43 1058.9 -317.31 1062.13 C-316.94 1063.02 -316.94 1063.02 -316.56 1063.93 C-315.12 1066.48 -313.68 1067.6 -311.31 1069.31 C-307.81 1071.93 -304.54 1074.67 -301.31 1077.63 C-295.34 1083.08 -289.26 1087.97 -282.31 1092.13 C-280.41 1093.43 -278.51 1094.74 -276.63 1096.06 C-266.43 1103.18 -256.11 1110.16 -245.56 1116.75 C-241.34 1119.41 -237.29 1122.26 -233.25 1125.19 C-214.93 1138.61 -214.93 1138.61 -193.31 1143.13 C-192.98 1143.79 -192.65 1144.45 -192.31 1145.13 C-190.15 1145.75 -187.96 1146.28 -185.75 1146.75 C-184.55 1147.01 -183.36 1147.27 -182.12 1147.54 C-181.2 1147.73 -180.27 1147.93 -179.31 1148.13 C-179.31 1149.78 -179.31 1151.43 -179.31 1153.13 C-173.06 1156.45 -166.58 1159.08 -160 1161.66 C-157.61 1162.61 -155.24 1163.6 -152.88 1164.62 C-148.91 1166.3 -144.89 1167.73 -140.81 1169.13 C-136.66 1170.55 -132.55 1171.99 -128.53 1173.75 C-126.07 1174.8 -123.9 1175.61 -121.31 1176.19 C-118.68 1176.8 -116.16 1177.47 -113.56 1178.25 C-110.23 1179.3 -110.23 1179.3 -106.31 1179.13 C-105.98 1179.79 -105.65 1180.45 -105.31 1181.13 C-103.13 1181.71 -100.91 1182.2 -98.69 1182.63 C-94.96 1183.37 -91.38 1184.11 -87.75 1185.25 C-83.19 1186.41 -78.7 1186.57 -74.01 1186.78 C-73.12 1186.9 -72.23 1187.01 -71.31 1187.13 C-70.98 1187.79 -70.65 1188.45 -70.31 1189.13 C-67.94 1189.49 -67.94 1189.49 -65.06 1189.56 C-59.33 1189.95 -54.01 1190.99 -48.44 1192.37 C-44.79 1193.25 -41.13 1193.9 -37.44 1194.5 C-35.31 1195.13 -35.31 1195.13 -33.29 1196.65 C-31.11 1198.28 -29.93 1198.56 -27.25 1198.75 C-23.31 1199.13 -23.31 1199.13 -20.31 1200.13 C-16.64 1200.59 -12.94 1200.84 -9.25 1201.13 C-8.16 1201.21 -7.06 1201.3 -5.93 1201.39 C3.55 1202.11 13.03 1202.52 22.53 1202.79 C23.57 1202.82 24.61 1202.85 25.68 1202.88 C26.6 1202.9 27.52 1202.93 28.47 1202.95 C30.69 1203.13 30.69 1203.13 32.69 1204.13 C34.86 1204.22 37.04 1204.25 39.22 1204.26 C40.22 1204.26 40.22 1204.26 41.25 1204.26 C43.47 1204.27 45.68 1204.26 47.9 1204.26 C49.44 1204.26 50.98 1204.26 52.52 1204.26 C55.75 1204.26 58.98 1204.26 62.21 1204.26 C66.35 1204.25 70.49 1204.25 74.64 1204.26 C77.81 1204.26 80.99 1204.26 84.17 1204.26 C85.7 1204.26 87.23 1204.26 88.76 1204.26 C90.89 1204.27 93.02 1204.26 95.16 1204.26 C96.37 1204.26 97.59 1204.25 98.84 1204.25 C101.63 1204.32 101.63 1204.32 103.69 1203.13 C106.02 1202.91 108.37 1202.76 110.71 1202.63 C111.42 1202.59 112.12 1202.55 112.85 1202.5 C115.1 1202.37 117.36 1202.25 119.62 1202.13 C136.76 1201.57 136.76 1201.57 153.56 1198.63 C159.06 1197.33 164.77 1196.92 170.37 1196.27 C175.4 1195.66 179.91 1194.89 184.69 1193.13 C186.49 1192.76 188.3 1192.42 190.12 1192.13 C194.43 1191.43 198.5 1190.35 202.69 1189.13 C204.79 1188.58 206.89 1188.04 209 1187.5 C219.58 1184.73 230 1181.39 240.44 1178.13 C242.69 1177.43 244.96 1176.74 247.22 1176.06 C248.37 1175.71 249.52 1175.36 250.7 1175 C252.26 1174.53 252.26 1174.53 253.84 1174.06 C257.17 1172.97 260.3 1171.6 263.47 1170.12 C265.88 1169.04 268.32 1168.14 270.81 1167.25 C281.65 1163.38 292.26 1159.01 302.69 1154.13 C303.85 1153.59 305.01 1153.06 306.21 1152.51 C324.28 1144.17 342.12 1135.23 358.69 1124.13 C360.42 1123.17 362.17 1122.23 363.94 1121.31 C368.63 1118.79 372.95 1115.96 377.28 1112.85 C379.58 1111.21 381.9 1109.62 384.25 1108.06 C384.97 1107.58 385.69 1107.1 386.44 1106.61 C388.03 1105.56 389.64 1104.52 391.25 1103.49 C392.07 1102.96 392.9 1102.43 393.75 1101.88 C394.5 1101.4 395.26 1100.92 396.03 1100.42 C396.58 1100 397.12 1099.57 397.69 1099.13 C397.69 1098.47 397.69 1097.81 397.69 1097.13 C398.4 1096.87 399.12 1096.62 399.86 1096.35 C411.67 1091.23 422.1 1080.46 431.97 1072.33 C433.68 1070.94 435.4 1069.58 437.15 1068.24 C444.08 1062.9 450.14 1056.86 456.24 1050.6 C458.37 1048.43 460.53 1046.28 462.69 1044.13 C463.75 1043.05 464.81 1041.98 465.88 1040.9 C467 1039.77 468.12 1038.63 469.25 1037.5 C469.81 1036.93 470.38 1036.36 470.96 1035.77 C473.74 1032.97 476.51 1030.48 479.69 1028.13 C480.02 1027.45 480.35 1026.77 480.69 1026.06 C481.69 1024.13 481.69 1024.13 483.48 1023.32 C486.39 1021.75 487.9 1019.72 489.94 1017.13 C490.64 1016.24 491.35 1015.35 492.08 1014.44 C493.88 1012.32 493.88 1012.32 493.69 1010.13 C494.26 1009.92 494.84 1009.71 495.44 1009.5 C498.51 1007.62 499.7 1005.13 501.69 1002.13 C502.74 1001.02 503.83 999.94 504.94 998.88 C510.1 993.87 514.63 988.27 518.57 982.26 C520.98 978.7 523.64 975.44 526.37 972.13 C531.28 966.1 535.62 959.89 539.72 953.29 C541.44 950.52 543.22 947.82 545.06 945.13 C547.23 941.91 548.98 938.62 550.69 935.13 C551.15 934.52 551.61 933.92 552.08 933.3 C553.88 930.87 555.26 928.36 556.69 925.69 C559.11 921.16 561.58 916.73 564.5 912.5 C570.06 904.19 574.31 895 578.74 886.05 C579.92 883.65 581.13 881.27 582.35 878.89 C585.48 872.82 588.04 866.72 590.41 860.32 C591.63 857.27 593.02 854.46 594.56 851.56 C602.37 836.31 606.72 819.07 611.85 802.79 C612.53 800.63 613.21 798.47 613.9 796.32 C619.87 777.43 624.79 757.99 627.19 738.3 C627.69 735.13 627.69 735.13 628.67 731.38 C629.93 726.56 630.33 721.71 630.75 716.75 C630.9 714.97 631.06 713.19 631.22 711.42 C631.29 710.64 631.35 709.86 631.42 709.06 C631.69 707.13 631.69 707.13 632.69 705.13 C633.21 700.54 633.45 695.93 633.73 691.33 C633.8 690.27 633.8 690.27 633.87 689.19 C634.86 673.03 634.99 656.88 634.95 640.69 C634.94 636.72 634.94 632.76 634.95 628.79 C637.09 597.6 637.09 597.6 631.69 568.13 C631.62 566.25 631.6 564.38 631.62 562.5 C631.63 561.5 631.64 560.5 631.65 559.46 C631.66 558.69 631.67 557.92 631.69 557.13 C631.03 557.13 630.37 557.13 629.69 557.13 C629.71 555.87 629.73 554.61 629.75 553.31 C629.76 547.88 629.25 542.53 628.69 537.13 C628.36 537.13 628.03 537.13 627.69 537.13 C626.37 528.22 625.05 519.31 623.69 510.13 C623.03 510.13 622.37 510.13 621.69 510.13 C622.02 508.48 622.35 506.83 622.69 505.13 C622.03 505.13 621.37 505.13 620.69 505.13 C620.64 504.53 620.6 503.93 620.55 503.31 C620 496.89 618.85 490.81 617.31 484.56 C617.1 483.68 616.89 482.8 616.68 481.89 C615.47 476.89 614.06 472.03 612.35 467.18 C611.42 464.32 610.85 461.42 610.31 458.46 C609.62 455.89 608.58 453.55 607.51 451.12 C605.97 447.4 604.86 443.54 603.69 439.69 C601.87 433.75 599.91 427.93 597.69 422.13 C597.36 421.14 597.03 420.15 596.69 419.13 C596.03 419.13 595.37 419.13 594.69 419.13 C594.77 418.3 594.85 417.48 594.94 416.63 C594.7 413.36 594.38 412.19 592.9 409.44 C590.74 405.26 588.82 401 586.94 396.69 C581.31 383.97 575.63 371.45 568.58 359.44 C565.73 354.45 563.19 349.31 560.69 344.13 C560.03 344.13 559.37 344.13 558.69 344.13 C558.31 342.86 558.31 342.86 557.94 341.56 C556.55 337.74 554.77 334.61 552.69 331.13 C552.03 331.13 551.37 331.13 550.69 331.13 C550.57 330.54 550.45 329.95 550.33 329.34 C549.65 327 548.78 325.62 547.31 323.69 C543.66 318.76 540.72 313.46 537.69 308.13 C537.03 308.13 536.37 308.13 535.69 308.13 C535.46 307.45 535.23 306.77 534.99 306.06 C533.36 302.4 531.14 299.33 528.75 296.13 C528.27 295.47 527.79 294.82 527.29 294.15 C523.49 289.07 519.49 284.19 515.3 279.43 C512.72 276.47 510.69 273.49 508.69 270.13 C507.31 268.49 505.89 266.89 504.44 265.31 C503.64 264.44 502.84 263.57 502.02 262.67 C501.25 261.83 500.48 260.99 499.69 260.13 C486.15 245.06 486.15 245.06 483.69 240.13 C483.03 240.13 482.37 240.13 481.69 240.13 C481.46 239.57 481.23 239.01 481 238.44 C479.31 235.47 477.16 233.48 474.69 231.13 C471.72 228.2 468.82 225.22 465.94 222.21 C464.57 220.79 463.19 219.36 461.81 217.94 C461.13 217.22 460.45 216.49 459.74 215.75 C455.44 211.25 455.44 211.25 449.82 208.92 C446.69 208.13 446.69 208.13 445.3 206.06 C444.87 204.83 444.87 204.83 444.44 203.56 C441.47 196.83 436.53 193.37 430.69 189.13 C429.77 188.45 428.86 187.77 427.91 187.07 C425.19 185.06 422.44 183.09 419.69 181.13 C414.02 177.03 408.38 172.91 402.81 168.69 C390.66 159.56 378.01 151.27 364.94 143.52 C363.01 142.33 361.23 141.07 359.44 139.69 C355.03 136.43 350.01 134.23 345.09 131.87 C341.76 130.17 338.79 128.2 335.69 126.13 C333.24 124.84 330.8 123.59 328.31 122.38 C326.9 121.68 325.48 120.98 324.06 120.28 C323.34 119.93 322.62 119.57 321.88 119.21 C319.71 118.14 317.56 117.06 315.4 115.97 C314.7 115.62 314.01 115.27 313.29 114.91 C311.98 114.25 310.67 113.58 309.35 112.92 C291.43 103.91 272.48 96.35 253.36 90.35 C250.8 89.5 248.45 88.62 246 87.54 C243.21 86.35 240.83 85.6 237.87 85.06 C233.91 84.35 233.91 84.35 231.69 82.13 C229.29 81.42 226.93 80.81 224.5 80.25 C223.05 79.9 221.6 79.56 220.15 79.21 C219.04 78.94 219.04 78.94 217.91 78.67 C214.45 77.83 211 76.92 207.56 76 C205.79 75.53 205.79 75.53 203.99 75.06 C201.9 74.47 199.83 73.83 197.79 73.1 C193.96 71.9 190.14 71.26 186.19 70.63 C181.15 69.82 176.53 68.78 171.69 67.13 C169.76 66.75 167.82 66.42 165.87 66.13 C162.41 65.6 159.02 64.98 155.61 64.16 C149.71 62.83 143.75 62.22 137.75 61.56 C135.51 61.32 133.27 61.07 131.03 60.81 C130.05 60.7 129.07 60.6 128.06 60.48 C125.69 60.13 125.69 60.13 123.69 59.13 C91.66 55.03 57.92 56.47 25.75 58.06 Z M-567.31 555.13 C-566.31 558.13 -566.31 558.13 -566.31 558.13 Z M-570.31 589.13 C-570.31 591.11 -570.31 593.09 -570.31 595.13 C-569.98 595.13 -569.65 595.13 -569.31 595.13 C-569.31 593.15 -569.31 591.17 -569.31 589.13 C-569.64 589.13 -569.97 589.13 -570.31 589.13 Z M634.69 673.13 C635.69 677.13 635.69 677.13 635.69 677.13 Z M631.69 707.13 C632.69 709.13 632.69 709.13 632.69 709.13 Z M630.69 717.13 C631.69 719.13 631.69 719.13 631.69 719.13 Z M627.69 735.13 C628.69 737.13 628.69 737.13 628.69 737.13 Z M21.69 1203.13 C21.69 1203.46 21.69 1203.79 21.69 1204.13 C24.66 1204.13 27.63 1204.13 30.69 1204.13 C30.69 1203.8 30.69 1203.47 30.69 1203.13 C27.72 1203.13 24.75 1203.13 21.69 1203.13 Z M103.69 1203.13 C103.69 1203.46 103.69 1203.79 103.69 1204.13 C106 1204.13 108.31 1204.13 110.69 1204.13 C110.69 1203.8 110.69 1203.47 110.69 1203.13 C108.38 1203.13 106.07 1203.13 103.69 1203.13 Z " fill="#9341C4" transform="translate(576.314208984375,4.873016357421875)"/>
<path d="M0 0 C0.78 -0.01 1.57 -0.02 2.38 -0.02 C4.98 -0.05 7.58 -0.07 10.19 -0.08 C11.52 -0.09 11.52 -0.09 12.88 -0.1 C17.6 -0.12 22.32 -0.14 27.04 -0.16 C30.94 -0.17 34.83 -0.2 38.73 -0.24 C43.44 -0.29 48.14 -0.31 52.85 -0.32 C54.64 -0.33 56.43 -0.34 58.22 -0.37 C77 -0.6 77 -0.6 84.4 5.19 C90.04 11.44 92.44 20.43 95.4 28.19 C98.05 35.07 101.01 41.65 104.4 48.19 C105.49 47.23 105.49 47.23 106.59 46.26 C111.3 42.81 115.88 43.06 121.59 43.02 C122.28 43.02 122.97 43.02 123.69 43.01 C125.93 43 128.17 43 130.4 43.01 C131.55 43.01 131.55 43.01 132.71 43.01 C163.29 43.04 163.29 43.04 176.4 47.19 C177.31 47.48 178.21 47.76 179.14 48.05 C194 53.19 207.09 62.93 215.4 76.44 C222.17 90.87 221.97 106.47 221.9 122.04 C221.9 124.43 221.91 126.81 221.91 129.2 C221.92 135.03 221.92 140.86 221.9 146.69 C221.89 153.68 221.89 160.68 221.9 167.67 C221.91 180.58 221.91 193.48 221.89 206.39 C221.87 219.16 221.86 231.94 221.86 244.71 C221.86 245.91 221.86 245.91 221.86 247.12 C221.86 250.36 221.86 253.59 221.86 256.82 C221.86 287.1 221.84 317.38 221.81 347.67 C221.79 374.56 221.77 401.46 221.77 428.35 C221.77 430.08 221.78 431.81 221.78 433.54 C221.78 434.82 221.78 434.82 221.78 436.13 C221.78 440.43 221.78 444.73 221.78 449.03 C221.78 449.88 221.78 450.73 221.78 451.6 C221.78 474.09 221.77 496.58 221.76 519.07 C221.75 519.87 221.75 520.67 221.75 521.5 C221.75 524.72 221.75 527.93 221.75 531.15 C221.74 542.34 221.74 553.52 221.74 564.71 C221.74 579.12 221.73 593.53 221.71 607.94 C221.7 615.56 221.69 623.17 221.7 630.79 C221.7 636.48 221.69 642.17 221.68 647.85 C221.67 650.16 221.67 652.46 221.68 654.76 C221.68 657.89 221.67 661.01 221.66 664.14 C221.67 665.03 221.67 665.93 221.67 666.85 C221.62 675.5 219.76 683.25 216.4 691.19 C216.16 691.81 215.92 692.42 215.67 693.05 C210.73 704.3 201.55 713.84 190.22 718.44 C184.35 720.46 178.58 720.98 172.4 721.19 C172.4 721.85 172.4 722.51 172.4 723.19 C126.58 723.23 80.75 723.26 34.92 723.28 C33.9 723.28 33.9 723.28 32.86 723.28 C18.13 723.28 3.41 723.29 -11.32 723.3 C-18.55 723.3 -25.77 723.3 -32.99 723.3 C-33.71 723.3 -34.43 723.3 -35.17 723.3 C-58.48 723.31 -81.8 723.33 -105.12 723.35 C-129.07 723.36 -153.02 723.38 -176.97 723.38 C-180.35 723.38 -183.73 723.38 -187.11 723.38 C-187.77 723.38 -188.44 723.38 -189.12 723.38 C-199.18 723.39 -209.24 723.39 -219.31 723.4 C-230.74 723.42 -242.18 723.42 -253.62 723.42 C-259.46 723.42 -265.3 723.42 -271.14 723.43 C-276.48 723.44 -281.82 723.44 -287.16 723.43 C-289.1 723.43 -291.04 723.44 -292.98 723.44 C-295.6 723.45 -298.22 723.45 -300.84 723.44 C-301.6 723.44 -302.37 723.45 -303.16 723.45 C-308.37 723.42 -308.37 723.42 -310.6 721.19 C-312.95 720.66 -312.95 720.66 -315.66 720.32 C-324.56 718.82 -331.85 714.66 -339.6 710.19 C-339.6 709.53 -339.6 708.87 -339.6 708.19 C-340.3 707.97 -341 707.74 -341.72 707.51 C-349.35 704.02 -355.26 697.1 -358.28 689.32 C-358.74 687.95 -359.17 686.57 -359.6 685.19 C-359.86 684.39 -360.13 683.58 -360.4 682.75 C-363.1 674.31 -363.74 666.28 -363.72 657.47 C-363.73 656.52 -363.73 655.56 -363.73 654.58 C-363.73 651.38 -363.73 648.19 -363.73 644.99 C-363.73 642.67 -363.73 640.36 -363.74 638.04 C-363.74 631.68 -363.74 625.32 -363.74 618.96 C-363.74 612.8 -363.75 606.64 -363.75 600.49 C-363.76 586.34 -363.76 572.19 -363.76 558.04 C-363.76 547.11 -363.77 536.18 -363.77 525.25 C-363.77 522.11 -363.77 518.96 -363.77 515.81 C-363.77 515.03 -363.77 514.25 -363.77 513.44 C-363.78 491.44 -363.78 469.44 -363.78 447.43 C-363.78 446.6 -363.78 445.78 -363.78 444.92 C-363.78 440.72 -363.78 436.51 -363.78 432.31 C-363.78 431.47 -363.78 430.64 -363.78 429.78 C-363.78 428.09 -363.78 426.4 -363.78 424.71 C-363.78 398.45 -363.79 372.19 -363.8 345.92 C-363.82 316.41 -363.83 286.89 -363.82 257.38 C-363.82 254.23 -363.82 251.08 -363.82 247.94 C-363.82 247.16 -363.82 246.39 -363.82 245.59 C-363.82 233.12 -363.83 220.66 -363.84 208.19 C-363.85 195.66 -363.85 183.13 -363.84 170.6 C-363.84 163.81 -363.84 157.03 -363.85 150.24 C-363.86 144.02 -363.85 137.81 -363.85 131.59 C-363.84 129.34 -363.85 127.1 -363.85 124.85 C-363.9 102.78 -361.56 86.3 -349.6 67.19 C-349.19 66.46 -348.79 65.73 -348.38 64.98 C-343.73 57.46 -335.24 54.02 -327.6 50.19 C-326.58 49.66 -325.56 49.13 -324.52 48.58 C-310.43 41.9 -294.2 43.01 -278.97 42.94 C-278.17 42.94 -277.38 42.93 -276.56 42.93 C-274.25 42.91 -271.93 42.92 -269.62 42.93 C-268.93 42.92 -268.24 42.92 -267.53 42.92 C-262.09 42.97 -256.25 43.48 -251.58 46.49 C-250.16 48.94 -250.51 50.61 -250.91 53.38 C-251.03 54.28 -251.15 55.18 -251.27 56.11 C-251.43 57.14 -251.43 57.14 -251.6 58.19 C-251.19 57.31 -250.79 56.42 -250.38 55.51 C-246.83 47.74 -243.06 40.15 -239.01 32.63 C-237.09 29.04 -235.2 25.44 -233.42 21.77 C-233.07 21.05 -232.72 20.34 -232.36 19.6 C-231.71 18.25 -231.06 16.9 -230.42 15.54 C-227.8 10.14 -225.34 5.2 -219.47 3.04 C-215.18 2.1 -211.31 1.91 -206.95 1.92 C-205.68 1.91 -205.68 1.91 -204.38 1.91 C-201.56 1.89 -198.74 1.89 -195.92 1.89 C-193.9 1.88 -191.87 1.87 -189.84 1.86 C-185.48 1.85 -181.12 1.83 -176.77 1.83 C-169.88 1.82 -162.99 1.79 -156.11 1.76 C-145.22 1.72 -134.34 1.69 -123.46 1.66 C-103.94 1.61 -84.43 1.55 -64.92 1.47 C-58.07 1.45 -51.22 1.43 -44.37 1.42 C-40.12 1.41 -35.86 1.39 -31.61 1.38 C-29.63 1.37 -27.66 1.37 -25.68 1.36 C-22.99 1.36 -20.3 1.35 -17.61 1.34 C-16.42 1.34 -16.42 1.34 -15.21 1.34 C-9.97 1.31 -5.32 0.03 0 0 Z M-7.6 1.19 C-7.6 1.52 -7.6 1.85 -7.6 2.19 C0.98 2.19 9.56 2.19 18.4 2.19 C18.4 1.86 18.4 1.53 18.4 1.19 C9.82 1.19 1.24 1.19 -7.6 1.19 Z M-211.6 47.19 C-210.18 54.26 -205.62 58.47 -199.69 62.49 C-198.01 63.42 -196.3 64.31 -194.6 65.19 C-193.31 66.09 -192.04 67.01 -190.78 67.94 C-187.97 70.39 -187.97 70.39 -185.6 70.19 C-185.6 70.85 -185.6 71.51 -185.6 72.19 C-183.66 73.6 -183.66 73.6 -181.1 75.07 C-176.12 78.14 -171.44 81.47 -166.78 85.01 C-161.46 89.04 -156.13 93.04 -150.72 96.94 C-149.84 97.59 -149.84 97.59 -148.94 98.25 C-146.06 100.5 -146.06 100.5 -142.6 101.19 C-142.6 101.85 -142.6 102.51 -142.6 103.19 C-140.5 104.84 -138.41 106.37 -136.22 107.88 C-135.58 108.33 -134.94 108.78 -134.28 109.24 C-131.46 111.22 -128.63 113.17 -125.79 115.13 C-121.8 117.89 -117.92 120.69 -114.16 123.76 C-108.31 128.52 -102.21 132.93 -96.11 137.36 C-94.91 138.23 -94.91 138.23 -93.69 139.12 C-92.62 139.9 -92.62 139.9 -91.52 140.69 C-89.6 142.19 -89.6 142.19 -87.96 143.89 C-86.67 145.42 -86.67 145.42 -84.6 145.19 C-84.75 153.57 -85.96 159.24 -90.6 166.19 C-91.16 167.1 -91.72 168.01 -92.31 168.95 C-94.88 173.07 -97.5 177.13 -100.35 181.07 C-102.26 183.72 -103.96 186.37 -105.6 189.19 C-106.15 190.08 -106.71 190.97 -107.28 191.88 C-108.76 194.04 -108.76 194.04 -108.6 196.19 C-109.26 196.19 -109.92 196.19 -110.6 196.19 C-111.74 197.69 -111.74 197.69 -112.8 199.67 C-113.22 200.4 -113.65 201.14 -114.08 201.89 C-114.52 202.67 -114.96 203.45 -115.41 204.26 C-117.92 208.68 -120.4 213.02 -123.42 217.13 C-125.79 219.84 -125.79 219.84 -125.6 222.19 C-131.66 222.29 -134.91 221.45 -139.53 217.44 C-145.24 211.88 -149.91 205.61 -154.6 199.19 C-155.64 197.8 -156.68 196.4 -157.72 195.01 C-158.18 194.39 -158.64 193.77 -159.12 193.13 C-160.84 190.87 -162.62 188.66 -164.41 186.44 C-169.69 179.88 -174.92 173.21 -179.6 166.19 C-180.26 166.19 -180.92 166.19 -181.6 166.19 C-181.82 165.49 -182.05 164.79 -182.28 164.07 C-183.58 161.22 -185.18 159.22 -187.19 156.85 C-189.53 154.09 -191.74 151.23 -193.97 148.38 C-194.45 147.76 -194.94 147.15 -195.44 146.51 C-198.54 142.55 -201.63 138.58 -204.72 134.6 C-206.69 132.07 -208.67 129.56 -210.64 127.04 C-211.61 125.81 -212.57 124.59 -213.53 123.36 C-215.59 120.75 -217.64 118.14 -219.72 115.54 C-222.64 111.87 -225.26 108.28 -227.51 104.14 C-235.88 89.15 -245.08 79.2 -261.6 73.19 C-268.33 71.87 -275.26 72.01 -282.1 72.01 C-283.57 71.99 -283.57 71.99 -285.07 71.97 C-291.19 71.96 -296.69 72.56 -302.6 74.19 C-303.77 74.51 -304.94 74.83 -306.14 75.16 C-307.2 75.48 -308.26 75.8 -309.35 76.13 C-310.41 76.45 -311.48 76.77 -312.58 77.1 C-318.94 79.41 -321.87 82.42 -325.28 88.19 C-325.67 88.8 -326.06 89.41 -326.46 90.04 C-333.48 101.72 -331.89 116.21 -331.89 129.32 C-331.89 131.59 -331.9 133.86 -331.91 136.13 C-331.93 142.36 -331.94 148.58 -331.94 154.81 C-331.95 160.84 -331.97 166.86 -331.98 172.89 C-332.02 185.98 -332.04 199.06 -332.06 212.15 C-332.07 223.6 -332.09 235.06 -332.12 246.51 C-332.12 247.27 -332.12 248.03 -332.12 248.81 C-332.13 251.9 -332.13 254.98 -332.14 258.07 C-332.2 287.01 -332.25 315.94 -332.29 344.88 C-332.32 370.58 -332.37 396.28 -332.43 421.98 C-332.49 450.87 -332.55 479.75 -332.6 508.64 C-332.6 511.72 -332.61 514.8 -332.61 517.88 C-332.61 518.64 -332.61 519.39 -332.61 520.18 C-332.63 531.62 -332.66 543.06 -332.68 554.51 C-332.71 567.52 -332.74 580.54 -332.75 593.55 C-332.75 600.19 -332.76 606.83 -332.78 613.47 C-332.8 619.55 -332.81 625.63 -332.81 631.71 C-332.81 633.91 -332.82 636.11 -332.82 638.31 C-332.99 662.5 -332.99 662.5 -323.35 684.32 C-317.09 688.58 -310.35 689.64 -302.92 689.57 C-302.09 689.57 -301.26 689.58 -300.41 689.58 C-297.64 689.59 -294.88 689.58 -292.11 689.57 C-290.1 689.58 -288.1 689.58 -286.09 689.59 C-280.58 689.6 -275.07 689.59 -269.57 689.59 C-263.62 689.58 -257.68 689.59 -251.74 689.6 C-240.77 689.61 -229.81 689.61 -218.84 689.6 C-208.71 689.59 -198.58 689.59 -188.45 689.59 C-187.45 689.59 -187.45 689.59 -186.42 689.6 C-183.69 689.6 -180.96 689.6 -178.23 689.6 C-152.64 689.61 -127.06 689.6 -101.47 689.58 C-78.74 689.57 -56 689.57 -33.27 689.58 C-7.73 689.6 17.82 689.61 43.36 689.6 C46.08 689.6 48.81 689.6 51.53 689.59 C52.54 689.59 52.54 689.59 53.56 689.59 C63.69 689.59 73.81 689.59 83.93 689.6 C95.44 689.61 106.95 689.61 118.46 689.59 C124.34 689.58 130.21 689.58 136.09 689.59 C141.46 689.6 146.84 689.59 152.21 689.58 C154.16 689.58 156.1 689.58 158.05 689.58 C160.69 689.59 163.34 689.58 165.98 689.57 C167.12 689.58 167.12 689.58 168.28 689.59 C174.78 689.52 179.35 688.11 184.15 683.63 C190.75 674.68 189.84 663.25 189.8 652.7 C189.81 650.92 189.82 649.14 189.82 647.36 C189.84 642.48 189.84 637.59 189.84 632.71 C189.84 627.44 189.85 622.16 189.87 616.89 C189.89 607.73 189.9 598.57 189.91 589.41 C189.91 576.04 189.94 562.67 189.96 549.31 C190.01 527.46 190.04 505.61 190.06 483.76 C190.08 462.81 190.11 441.87 190.14 420.93 C190.14 419.65 190.15 418.38 190.15 417.06 C190.16 411.93 190.17 406.79 190.18 401.66 C190.23 368.47 190.29 335.27 190.33 302.08 C190.33 300.95 190.33 299.82 190.33 298.66 C190.35 286.35 190.36 274.05 190.37 261.75 C190.37 257.33 190.37 252.92 190.37 248.5 C190.37 246.86 190.37 246.86 190.37 245.19 C190.38 229.45 190.43 213.71 190.51 197.97 C190.56 188.88 190.59 179.79 190.62 170.7 C190.64 163.28 190.68 155.85 190.74 148.43 C190.77 143.84 190.78 139.25 190.79 134.66 C190.8 132.55 190.81 130.43 190.83 128.32 C191 111.63 189.76 94.65 180.4 80.19 C175.55 75.58 168.43 75.37 162.06 74.59 C159.4 74.19 159.4 74.19 158.4 73.19 C154.26 72.95 154.26 72.95 150.4 74.19 C147.8 74.31 145.22 74.38 142.62 74.4 C141.02 74.43 139.42 74.46 137.82 74.49 C135.31 74.53 132.79 74.57 130.28 74.59 C127.85 74.62 125.42 74.67 122.99 74.72 C122.25 74.72 121.51 74.72 120.75 74.73 C114.35 74.87 108.81 76.19 103.78 80.38 C100.29 84.52 97.09 88.84 93.94 93.24 C90.96 97.32 87.81 100.9 84.19 104.42 C79.22 109.35 74.86 114.76 70.76 120.43 C69.42 122.18 67.96 123.64 66.4 125.19 C61.72 130.72 57.22 136.37 52.91 142.19 C50.57 145.31 48.11 148.33 45.66 151.37 C44.04 153.39 42.45 155.43 40.87 157.49 C35.81 164.06 30.58 170.31 24.9 176.35 C21.3 180.19 17.81 184.12 14.4 188.13 C13.96 188.65 13.51 189.17 13.06 189.7 C10.24 193.05 7.81 196.54 5.4 200.19 C4.11 201.88 2.8 203.54 1.47 205.19 C0.43 206.48 0.43 206.48 -0.62 207.79 C-2.26 209.78 -3.92 211.74 -5.6 213.69 C-7.8 215.92 -7.8 215.92 -7.6 218.19 C-8.59 218.52 -9.58 218.85 -10.6 219.19 C-10.86 220 -11.13 220.8 -11.41 221.63 C-12.6 224.19 -12.6 224.19 -15.72 225.51 C-17.14 225.85 -17.14 225.85 -18.6 226.19 C-18.68 225.47 -18.76 224.75 -18.85 224 C-19.77 220.56 -21.23 218.92 -23.6 216.26 C-31.09 207.39 -36.92 197.85 -41.94 187.39 C-43.96 183.5 -46.25 179.83 -48.6 176.13 C-60.29 157.63 -60.29 157.63 -60.6 148.19 C-59.7 147.71 -58.81 147.22 -57.88 146.72 C-51.17 143.02 -45.05 139.2 -39.15 134.26 C-34.2 130.26 -28.85 126.78 -23.6 123.19 C-21.86 121.99 -20.13 120.78 -18.41 119.57 C-15.99 117.87 -13.57 116.17 -11.14 114.49 C-5.75 110.73 -0.43 106.89 4.86 102.99 C7.4 101.19 7.4 101.19 10.04 99.65 C12.23 98.3 13.61 97.01 15.4 95.19 C17.47 93.64 19.54 92.12 21.65 90.63 C22.26 90.2 22.87 89.77 23.49 89.32 C26.84 86.95 30.23 84.64 33.66 82.38 C34.35 81.93 35.04 81.48 35.75 81.02 C37.09 80.14 38.43 79.28 39.78 78.42 C41.36 77.39 42.89 76.3 44.4 75.19 C44.4 74.53 44.4 73.87 44.4 73.19 C45.21 73.01 46.01 72.82 46.84 72.63 C52.55 70.33 57.2 66.44 61.5 62.06 C63.88 59.72 66.41 58.66 69.4 57.19 C70.69 56.43 71.97 55.64 73.22 54.82 C73.8 54.44 74.38 54.06 74.99 53.67 C76.93 51.91 76.93 51.91 77.4 47.19 C-17.97 47.19 -113.34 47.19 -211.6 47.19 Z M78.4 48.19 C79.4 50.19 79.4 50.19 79.4 50.19 Z M-253.6 62.19 C-252.6 64.19 -252.6 64.19 -252.6 64.19 Z M-362.6 105.19 C-361.6 107.19 -361.6 107.19 -361.6 107.19 Z M190.4 221.19 C190.4 254.19 190.4 287.19 190.4 321.19 C190.73 321.19 191.06 321.19 191.4 321.19 C191.4 288.19 191.4 255.19 191.4 221.19 C191.07 221.19 190.74 221.19 190.4 221.19 Z M-362.6 663.19 C-361.6 667.19 -361.6 667.19 -361.6 667.19 Z " fill="#9240C3" transform="translate(709.595703125,274.80712890625)"/>
<path d="M0 0 C6.62 4.88 13.34 11.03 16 19 C16.28 22.58 16.28 26.16 16.31 29.75 C16.34 30.73 16.37 31.7 16.4 32.71 C16.46 39.07 15.81 42.85 12 48 C10.07 49.89 10.07 49.89 8.12 51.25 C7.44 51.73 6.75 52.22 6.04 52.71 C3.45 54.35 0.78 55.71 -2 57 C-2.33 57.33 -2.66 57.66 -3 58 C-5.53 58.07 -8.03 58.09 -10.56 58.06 C-11.27 58.06 -11.98 58.05 -12.72 58.05 C-14.48 58.04 -16.24 58.02 -18 58 C-18 57.34 -18 56.68 -18 56 C-18.58 55.83 -19.16 55.66 -19.76 55.48 C-27.88 52.96 -34.32 49.29 -39 42 C-42.3 34.31 -41.74 24.68 -38.87 16.97 C-34.33 7.97 -28.11 2.06 -18.59 -1.35 C-12.08 -2.99 -6.2 -2.54 0 0 Z " fill="#9341C4" transform="translate(647,873)"/>
<path d="M0 0 C6.69 4.73 12.24 10.27 15.25 18 C15.65 21.53 15.62 25.01 15.56 28.56 C15.57 29.5 15.57 30.43 15.57 31.39 C15.54 36.01 15.45 39.82 13.25 44 C12.63 45.27 12.63 45.27 12 46.56 C8.34 51.66 2.86 53.69 -2.75 56 C-3.08 56.33 -3.41 56.66 -3.75 57 C-6.1 57.07 -8.46 57.08 -10.81 57.06 C-12.1 57.05 -13.39 57.04 -14.72 57.04 C-15.72 57.02 -16.72 57.01 -17.75 57 C-18.08 56.01 -18.41 55.02 -18.75 54 C-19.55 53.96 -20.36 53.92 -21.19 53.88 C-30.02 51.71 -35.96 45.48 -40.75 38 C-43.03 31.17 -42.32 22.7 -39.75 16 C-35.05 7.41 -28.43 0.52 -18.94 -2.52 C-11.75 -4.11 -6.4 -3.84 0 0 Z " fill="#9341C4" transform="translate(647.75,525)"/>
<path d="M0 0 C9.11 4.59 16.3 12.46 19.52 22.14 C19.65 24.93 19.71 27.67 19.71 30.46 C19.72 31.2 19.74 31.95 19.75 32.72 C19.76 39.1 18.67 44.11 14.71 49.27 C14.23 49.91 13.75 50.55 13.25 51.21 C9.45 55.45 6.7 57.57 0.85 57.95 C0.17 57.98 -0.52 58 -1.23 58.02 C-1.94 58.05 -2.65 58.08 -3.38 58.11 C-13.36 58.42 -20.94 55.88 -29.16 50.33 C-34.66 45.13 -37.17 40.7 -37.68 33.09 C-37.84 21.72 -36 15.8 -28.06 7.49 C-19.99 0.17 -10.75 -3.71 0 0 Z " fill="#9341C4" transform="translate(643.4765625,709.85546875)"/>
<path d="M0 0 C158.73 0 317.46 0 481 0 C481 0.33 481 0.66 481 1 C322.27 1 163.54 1 0 1 C0 0.67 0 0.34 0 0 Z " fill="#000002" transform="translate(401,999)"/>
<path d="M0 0 C0.33 0 0.66 0 1 0 C1 10.23 1 20.46 1 31 C0.67 31 0.34 31 0 31 C0 20.77 0 10.54 0 0 Z " fill="#9341C4" transform="translate(4,623)"/>
<path d="M0 0 C0.33 0 0.66 0 1 0 C1 4.62 1 9.24 1 14 C0.67 14 0.34 14 0 14 C0 9.38 0 4.76 0 0 Z " fill="#000002" transform="translate(664,896)"/>
<path d="M0 0 C4.62 0 9.24 0 14 0 C14 0.33 14 0.66 14 1 C9.38 1 4.76 1 0 1 C0 0.67 0 0.34 0 0 Z " fill="#000002" transform="translate(630,583)"/>
<path d="M0 0 C0.33 0 0.66 0 1 0 C1 4.29 1 8.58 1 13 C0.67 13 0.34 13 0 13 C0 8.71 0 4.42 0 0 Z " fill="#000002" transform="translate(65,649)"/>
<path d="M0 0 C0.33 0 0.66 0 1 0 C1 4.29 1 8.58 1 13 C0.67 13 0.34 13 0 13 C0 8.71 0 4.42 0 0 Z " fill="#000002" transform="translate(65,612)"/>
<path d="M0 0 C0.33 0 0.66 0 1 0 C1 3.96 1 7.92 1 12 C0.67 12 0.34 12 0 12 C0 8.04 0 4.08 0 0 Z " fill="#000002" transform="translate(664,548)"/>
<path d="M0 0 C2.97 0 5.94 0 9 0 C9 0.33 9 0.66 9 1 C6.03 1 3.06 1 0 1 C0 0.67 0 0.34 0 0 Z " fill="#000002" transform="translate(671,1272)"/>
<path d="M0 0 C2.64 0 5.28 0 8 0 C8 0.33 8 0.66 8 1 C5.36 1 2.72 1 0 1 C0 0.67 0 0.34 0 0 Z " fill="#000002" transform="translate(588,1272)"/>
<path d="M0 0 C0.33 0 0.66 0 1 0 C1 1.98 1 3.96 1 6 C0.67 6 0.34 6 0 6 C0 4.02 0 2.04 0 0 Z " fill="#000002" transform="translate(664,737)"/>
<path d="M0 0 C0.33 0 0.66 0 1 0 C1 1.98 1 3.96 1 6 C0.67 6 0.34 6 0 6 C0 4.02 0 2.04 0 0 Z " fill="#000002" transform="translate(1272,687)"/>
<path d="M0 0 C1.98 0 3.96 0 6 0 C6 0.33 6 0.66 6 1 C4.02 1 2.04 1 0 1 C0 0.67 0 0.34 0 0 Z " fill="#000002" transform="translate(862,349)"/>
<path d="M0 0 C0.33 0 0.66 0 1 0 C1 1.65 1 3.3 1 5 C0.67 5 0.34 5 0 5 C0 3.35 0 1.7 0 0 Z " fill="#000002" transform="translate(1272,577)"/>
<path d="M0 0 C4 1 4 1 4 1 Z " fill="#9341C4" transform="translate(633,708)"/>
<path d="M0 0 C4 1 4 1 4 1 Z " fill="#000002" transform="translate(444,349)"/>
<path d="M0 0 C4 1 4 1 4 1 Z " fill="#000002" transform="translate(435,348)"/>
<path d="M0 0 C4 1 4 1 4 1 Z " fill="#000002" transform="translate(696,65)"/>
<path d="M0 0 C4 1 4 1 4 1 Z " fill="#000002" transform="translate(584,65)"/>
<path d="" fill="#000002" transform="translate(0,0)"/>
<path d="" fill="#000002" transform="translate(0,0)"/>
<path d="M0 0 C3 1 3 1 3 1 Z " fill="#000002" transform="translate(409,349)"/>
<path d="M0 0 C3 1 3 1 3 1 Z " fill="#000002" transform="translate(547,70)"/>
<path d="M0 0 C2 1 2 1 2 1 Z " fill="#000002" transform="translate(730,1267)"/>
<path d="M0 0 C2 1 2 1 2 1 Z " fill="#000002" transform="translate(772,1258)"/>
<path d="M0 0 C2 1 2 1 2 1 Z " fill="#000002" transform="translate(791,1254)"/>
<path d="M0 0 C2 1 2 1 2 1 Z " fill="#000002" transform="translate(812,1249)"/>
<path d="M0 0 C2 1 2 1 2 1 Z " fill="#000002" transform="translate(830,1245)"/>
<path d="M0 0 C2 1 2 1 2 1 Z " fill="#000002" transform="translate(451,1245)"/>
<path d="" fill="#000002" transform="translate(0,0)"/>
<path d="" fill="#000002" transform="translate(0,0)"/>
<path d="M0 0 C2 1 2 1 2 1 Z " fill="#000002" transform="translate(806,88)"/>
<path d="M0 0 C2 1 2 1 2 1 Z " fill="#000002" transform="translate(774,79)"/>
<path d="M0 0 C2 1 2 1 2 1 Z " fill="#000002" transform="translate(732,70)"/>
<path d="" fill="#000002" transform="translate(0,0)"/>
<path d="" fill="#000002" transform="translate(0,0)"/>
<path d="" fill="#000002" transform="translate(0,0)"/>
<path d="" fill="#000002" transform="translate(0,0)"/>
<path d="" fill="#000002" transform="translate(0,0)"/>
<path d="" fill="#000002" transform="translate(0,0)"/>
<path d="" fill="#000002" transform="translate(0,0)"/>
<path d="" fill="#000002" transform="translate(0,0)"/>
<path d="" fill="#000002" transform="translate(0,0)"/>
<path d="" fill="#000002" transform="translate(0,0)"/>
<path d="" fill="#000002" transform="translate(0,0)"/>
<path d="" fill="#000002" transform="translate(0,0)"/>
<path d="" fill="#000002" transform="translate(0,0)"/>
<path d="" fill="#000002" transform="translate(0,0)"/>
<path d="" fill="#000002" transform="translate(0,0)"/>
<path d="" fill="#000002" transform="translate(0,0)"/>
<path d="" fill="#000002" transform="translate(0,0)"/>
<path d="" fill="#000002" transform="translate(0,0)"/>
<path d="" fill="#000002" transform="translate(0,0)"/>
<path d="" fill="#000002" transform="translate(0,0)"/>
<path d="" fill="#000002" transform="translate(0,0)"/>
<path d="" fill="#000002" transform="translate(0,0)"/>
<path d="" fill="#000002" transform="translate(0,0)"/>
<path d="" fill="#000002" transform="translate(0,0)"/>
<path d="" fill="#000002" transform="translate(0,0)"/>
<path d="" fill="#000002" transform="translate(0,0)"/>
<path d="" fill="#000002" transform="translate(0,0)"/>
<path d="" fill="#000002" transform="translate(0,0)"/>
<path d="" fill="#000002" transform="translate(0,0)"/>
<path d="" fill="#000002" transform="translate(0,0)"/>
<path d="" fill="#000002" transform="translate(0,0)"/>
<path d="" fill="#000002" transform="translate(0,0)"/>
<path d="" fill="#000002" transform="translate(0,0)"/>
<path d="" fill="#000002" transform="translate(0,0)"/>
</svg>
