<?xml version="1.0" encoding="UTF-8"?>
<!-- Generator: visioncortex VTracer 0.6.3 -->
<svg version="1.1" xmlns="http://www.w3.org/2000/svg" width="1280" height="1280">
<path d="M0 0 C2.41 -0 4.82 -0.01 7.23 -0.01 C50.97 -0.07 50.97 -0.07 62.36 2.58 C66.3 3.47 70.29 4.04 74.27 4.66 C76.74 5.12 76.74 5.12 78.74 6.12 C79.57 6.12 80.39 6.12 81.24 6.12 C83.74 6.12 83.74 6.12 85.74 7.12 C88.17 7.64 90.6 8.08 93.04 8.53 C95.74 9.12 95.74 9.12 98.48 10.07 C102.68 11.42 106.91 12.19 111.24 13 C120.37 14.76 129.61 16.59 138.23 20.15 C141.12 21.27 143.96 21.91 146.99 22.56 C152.4 23.78 157.53 25.29 162.74 27.12 C165.12 27.92 167.49 28.71 169.87 29.5 C171.16 29.93 172.46 30.36 173.75 30.79 C176.43 31.69 179.11 32.57 181.8 33.45 C182.79 33.78 182.79 33.78 183.8 34.11 C185.63 34.71 187.47 35.31 189.31 35.91 C192.86 37.17 196.28 38.62 199.74 40.12 C201.82 40.92 203.91 41.72 205.99 42.5 C211.01 44.42 215.9 46.49 220.76 48.76 C223.57 50.04 226.4 51.26 229.25 52.46 C238.64 56.46 247.61 61.15 256.6 65.99 C258.61 67.05 260.65 68.07 262.7 69.07 C267.42 71.41 271.95 74.08 276.49 76.75 C278.15 77.72 279.81 78.69 281.48 79.66 C282.2 80.09 282.93 80.51 283.67 80.95 C285.67 82.08 287.68 83.12 289.74 84.12 C289.74 84.78 289.74 85.44 289.74 86.12 C290.48 86.4 291.21 86.68 291.97 86.96 C305.36 92.56 317.87 102.36 329.59 110.86 C331.75 112.42 333.9 113.87 336.15 115.29 C337.43 116.2 337.43 116.2 338.74 117.12 C338.74 117.78 338.74 118.44 338.74 119.12 C339.55 119.29 340.35 119.45 341.18 119.62 C346.3 121.78 349.73 125.35 353.74 129.12 C355.15 130.4 356.57 131.67 357.99 132.94 C358.6 133.48 359.2 134.02 359.82 134.58 C361.76 136.21 361.76 136.21 364.19 137.56 C366.91 139.22 369.04 141.08 371.37 143.25 C375.97 147.49 380.77 151.41 385.69 155.28 C386.37 155.89 387.04 156.49 387.74 157.12 C387.74 157.78 387.74 158.44 387.74 159.12 C388.32 159.39 388.89 159.66 389.48 159.94 C391.82 161.16 393.87 162.55 395.99 164.12 C396.7 164.64 397.41 165.15 398.13 165.69 C398.66 166.16 399.2 166.63 399.74 167.12 C399.74 167.78 399.74 168.44 399.74 169.12 C400.34 169.4 400.93 169.67 401.54 169.95 C403.69 171.1 405.19 172.26 406.96 173.92 C407.56 174.48 408.15 175.04 408.77 175.62 C409.4 176.22 410.03 176.82 410.68 177.44 C411.34 178.06 412 178.68 412.67 179.32 C436.36 201.77 436.36 201.77 441.12 210.25 C443.5 214.3 446.5 216.24 450.56 218.51 C453.42 220.63 454.82 223.13 456.74 226.12 C459.05 228.97 461.5 231.7 463.94 234.44 C466.43 237.31 468.02 239.4 468.74 243.12 C469.4 243.12 470.06 243.12 470.74 243.12 C472.04 244.81 472.04 244.81 473.49 247.12 C475.87 250.89 478.45 254.43 481.13 257.98 C489.48 269.06 497.39 280.36 504.74 292.12 C505.29 292.97 505.84 293.82 506.4 294.69 C509.74 299.88 509.74 299.88 509.74 302.12 C510.4 302.12 511.06 302.12 511.74 302.12 C512 302.59 512.26 303.05 512.52 303.53 C513.36 305.05 514.21 306.57 515.05 308.08 C515.96 309.72 516.88 311.36 517.78 313.01 C518.93 315.09 520.09 317.17 521.24 319.25 C521.61 319.92 521.98 320.58 522.36 321.27 C524.18 324.54 526.06 327.63 528.28 330.64 C530.84 334.14 532.75 337.79 534.62 341.69 C535.32 343.11 536.01 344.54 536.71 345.96 C537.05 346.67 537.4 347.37 537.75 348.1 C539.17 351 540.65 353.87 542.12 356.75 C549.16 370.87 555.71 385.2 561.01 400.07 C561.81 402.32 562.65 404.56 563.48 406.8 C568.41 419.99 573.04 433.2 576.72 446.79 C577.93 451.23 579.19 455.64 580.51 460.04 C583.59 470.3 586.46 480.39 588.14 490.98 C588.71 493.94 589.62 496.34 590.74 499.12 C591.12 501.09 591.46 503.07 591.74 505.06 C592.19 508.13 592.65 510.88 593.71 513.79 C595.2 518.6 595.66 523.45 596.24 528.44 C596.48 530.43 596.72 532.43 596.96 534.42 C597.12 535.74 597.12 535.74 597.27 537.09 C597.66 539.58 598.16 541.96 598.74 544.41 C599.79 549.01 600.24 553.54 600.56 558.24 C600.62 559.07 600.68 559.9 600.75 560.75 C600.94 563.35 601.12 565.96 601.31 568.56 C601.49 571.19 601.68 573.82 601.88 576.45 C602 578.08 602.11 579.7 602.22 581.33 C602.45 585.36 602.45 585.36 603.74 589.12 C603.97 591.67 604.14 594.19 604.28 596.74 C604.32 597.5 604.36 598.27 604.41 599.06 C604.5 600.68 604.59 602.31 604.67 603.94 C604.8 606.39 604.94 608.83 605.08 611.28 C605.91 626.14 605.72 640.8 604.94 655.66 C604.8 658.34 604.67 661.03 604.54 663.72 C604.45 665.43 604.37 667.14 604.28 668.85 C604.24 669.66 604.2 670.46 604.16 671.28 C603.86 676.89 603.86 676.89 602.74 679.12 C602.46 681.78 602.22 684.43 602.02 687.1 C601.96 687.89 601.9 688.69 601.83 689.51 C601.63 692.07 601.44 694.63 601.24 697.19 C601.05 699.72 600.85 702.25 600.65 704.78 C600.53 706.36 600.41 707.94 600.29 709.51 C599.22 723.36 599.22 723.36 597.77 729.49 C596.34 735.61 595.66 741.81 594.89 748.04 C594.28 752.74 593.55 757.27 592.32 761.86 C591.57 764.78 590.96 767.73 590.34 770.68 C590.09 771.87 589.84 773.06 589.58 774.29 C589.07 776.75 588.55 779.22 588.04 781.68 C586.76 787.74 585.37 793.67 583.52 799.58 C581.6 805.85 580.02 812.23 578.35 818.58 C576.68 824.84 574.89 831.01 572.74 837.12 C572.52 837.78 572.29 838.43 572.06 839.1 C558.46 878.35 558.46 878.35 551.73 891.11 C550.88 892.85 550.11 894.62 549.35 896.4 C547.77 900.14 545.96 903.76 544.12 907.37 C541.45 912.65 538.87 917.96 536.37 923.32 C532.76 931.09 528.92 938.6 524.58 945.99 C522.88 948.9 521.27 951.84 519.68 954.81 C516.64 960.43 513.22 965.77 509.74 971.12 C508.55 973 507.37 974.87 506.18 976.75 C503.61 980.79 501 984.79 498.32 988.76 C497.18 990.46 496.06 992.17 494.94 993.89 C490.27 1001.04 485.24 1007.79 479.99 1014.52 C478 1017.09 476.06 1019.7 474.12 1022.31 C471.21 1026.19 468.29 1030.05 465.31 1033.87 C464.67 1034.69 464.03 1035.51 463.37 1036.36 C462.83 1036.94 462.3 1037.52 461.74 1038.12 C461.08 1038.12 460.42 1038.12 459.74 1038.12 C459.35 1039.24 459.35 1039.24 458.96 1040.38 C457.71 1043.21 456.43 1044.84 454.29 1047.05 C453.27 1048.12 453.27 1048.12 452.22 1049.21 C451.51 1049.95 450.79 1050.68 450.06 1051.44 C448.65 1052.89 447.25 1054.34 445.86 1055.8 C445.24 1056.44 444.61 1057.08 443.97 1057.73 C442.09 1059.76 440.27 1061.81 438.46 1063.91 C434.84 1068.07 431.02 1071.99 427.12 1075.88 C426.42 1076.58 425.71 1077.29 424.99 1078.01 C423.51 1079.49 422.03 1080.97 420.55 1082.44 C418.31 1084.68 416.07 1086.92 413.83 1089.17 C412.39 1090.61 410.94 1092.06 409.5 1093.5 C408.51 1094.49 408.51 1094.49 407.5 1095.5 C401.43 1101.55 395.03 1107.17 388.37 1112.56 C387.54 1113.24 386.7 1113.92 385.84 1114.62 C383.74 1116.12 383.74 1116.12 381.74 1116.12 C381.52 1116.7 381.29 1117.28 381.06 1117.87 C379.4 1120.72 377.34 1122.11 374.74 1124.12 C374.02 1124.71 373.3 1125.3 372.56 1125.91 C367.12 1130.34 361.53 1134.49 355.8 1138.53 C351.86 1141.31 347.99 1144.18 344.2 1147.16 C342.74 1148.12 342.74 1148.12 340.74 1148.12 C340.74 1148.78 340.74 1149.44 340.74 1150.12 C339.13 1151.38 339.13 1151.38 336.87 1152.81 C330.27 1157.07 323.82 1161.49 317.62 1166.31 C314.49 1168.68 311.34 1170.4 307.81 1172.06 C304.7 1173.66 301.9 1175.65 299.03 1177.62 C295.39 1180.01 291.57 1182.06 287.74 1184.12 C286.39 1184.87 285.03 1185.62 283.68 1186.37 C282.94 1186.78 282.2 1187.2 281.43 1187.62 C279.34 1188.79 277.26 1189.97 275.18 1191.16 C266.45 1196.14 257.62 1200.79 248.59 1205.21 C244.88 1207.04 241.19 1208.93 237.49 1210.8 C234.28 1212.35 231.03 1213.74 227.74 1215.12 C226.53 1215.63 225.32 1216.14 224.08 1216.67 C206.2 1224.11 188.07 1230.87 169.74 1237.12 C168.74 1237.46 168.74 1237.46 167.72 1237.81 C157.84 1241.18 147.9 1244.36 137.92 1247.45 C136.04 1248.03 134.15 1248.62 132.27 1249.22 C117.41 1253.7 101.99 1256.75 86.61 1258.73 C84.01 1259.09 81.49 1259.56 78.93 1260.12 C73.49 1261.28 67.98 1261.85 62.45 1262.43 C58.47 1262.79 58.47 1262.79 54.74 1264.12 C53.06 1264.32 51.37 1264.47 49.68 1264.59 C48.63 1264.66 47.57 1264.74 46.49 1264.82 C45.34 1264.9 44.2 1264.98 43.02 1265.06 C41.86 1265.15 40.69 1265.23 39.48 1265.32 C34.46 1265.68 29.45 1266.04 24.43 1266.39 C20.77 1266.65 17.12 1266.92 13.46 1267.19 C12.32 1267.26 11.18 1267.34 10 1267.43 C8.94 1267.5 7.89 1267.58 6.8 1267.66 C5.87 1267.72 4.94 1267.79 3.98 1267.86 C1.71 1268 1.71 1268 -0.26 1269.12 C-3.22 1269.37 -6.16 1269.56 -9.13 1269.69 C-10.08 1269.73 -11.03 1269.77 -12 1269.81 C-31.75 1270.57 -51.64 1270.56 -71.38 1269.69 C-72.28 1269.65 -73.17 1269.61 -74.09 1269.57 C-79.99 1269.26 -79.99 1269.26 -82.26 1268.12 C-85.13 1267.78 -88 1267.48 -90.89 1267.22 C-92.66 1267.05 -94.44 1266.88 -96.21 1266.71 C-99.01 1266.45 -101.8 1266.19 -104.6 1265.93 C-107.3 1265.68 -110 1265.42 -112.7 1265.16 C-113.52 1265.08 -114.34 1265.01 -115.19 1264.93 C-120 1264.47 -124.61 1263.7 -129.31 1262.58 C-132.02 1261.95 -134.75 1261.56 -137.51 1261.19 C-143.15 1260.35 -148.64 1259.18 -154.18 1257.85 C-157.75 1257.01 -161.33 1256.31 -164.94 1255.65 C-167.26 1255.12 -167.26 1255.12 -169.83 1254.24 C-174.72 1252.65 -179.7 1251.52 -184.69 1250.31 C-193.23 1248.2 -201.55 1245.92 -209.84 1242.97 C-212.98 1241.87 -216.14 1240.8 -219.3 1239.73 C-221.26 1239.06 -223.21 1238.4 -225.17 1237.73 C-227.08 1237.08 -229 1236.43 -230.92 1235.78 C-236.85 1233.74 -242.66 1231.62 -248.36 1228.99 C-251.05 1227.76 -253.8 1226.72 -256.57 1225.69 C-267.64 1221.48 -278.64 1217.01 -289.19 1211.62 C-293.28 1209.55 -297.43 1207.81 -301.69 1206.15 C-309.35 1203.09 -316.64 1199.47 -323.84 1195.46 C-325.64 1194.46 -327.47 1193.53 -329.32 1192.62 C-332.85 1190.82 -336.19 1188.77 -339.57 1186.72 C-342.16 1185.18 -344.79 1183.73 -347.44 1182.31 C-356.93 1177.19 -366.2 1171.64 -375.1 1165.57 C-377.52 1163.95 -379.98 1162.41 -382.44 1160.87 C-392.74 1154.34 -402.49 1147.03 -412.11 1139.55 C-415.11 1137.24 -418.15 1134.99 -421.19 1132.75 C-426.58 1128.74 -431.66 1124.44 -436.71 1120.02 C-439.78 1117.28 -439.78 1117.28 -443.26 1115.12 C-443.26 1114.46 -443.26 1113.8 -443.26 1113.12 C-444.04 1112.88 -444.82 1112.63 -445.63 1112.37 C-448.72 1110.9 -448.79 1110.05 -450.26 1107.12 C-451 1106.85 -451.74 1106.58 -452.5 1106.31 C-455.92 1104.84 -457.77 1102.87 -460.32 1100.19 C-463.75 1096.59 -463.75 1096.59 -467.57 1093.43 C-468.12 1093 -468.68 1092.57 -469.26 1092.12 C-469.26 1091.46 -469.26 1090.8 -469.26 1090.12 C-469.81 1089.9 -470.36 1089.67 -470.93 1089.44 C-473.94 1087.74 -476.07 1085.57 -478.51 1083.12 C-479.4 1082.24 -480.29 1081.35 -481.21 1080.44 C-483.26 1078.12 -483.26 1078.12 -483.26 1076.12 C-483.8 1075.92 -484.34 1075.71 -484.9 1075.5 C-488.18 1073.58 -490.45 1070.87 -492.94 1068.06 C-496.54 1064.08 -500.15 1060.17 -504.01 1056.44 C-507.74 1052.75 -511.01 1048.84 -514.24 1044.71 C-516.31 1042.06 -518.43 1039.46 -520.57 1036.87 C-552.26 998.2 -552.26 998.2 -552.26 993.12 C-552.92 993.12 -553.58 993.12 -554.26 993.12 C-555.39 991.38 -556.44 989.57 -557.44 987.75 C-559.63 983.78 -561.95 980.09 -564.59 976.4 C-568.31 971.14 -571.59 965.69 -574.82 960.12 C-575.9 958.27 -576.99 956.41 -578.07 954.56 C-578.6 953.66 -579.13 952.76 -579.67 951.83 C-581.25 949.14 -582.86 946.47 -584.47 943.81 C-586.57 940.32 -588.48 936.8 -590.26 933.12 C-590.99 931.73 -591.72 930.33 -592.46 928.94 C-602.05 910.85 -611.38 892.72 -618.86 873.63 C-619.78 871.32 -620.73 869.03 -621.71 866.75 C-623.51 862.53 -625.17 858.27 -626.82 854 C-627.43 852.43 -628.03 850.87 -628.64 849.3 C-628.92 848.57 -629.2 847.84 -629.49 847.08 C-630.09 845.55 -630.71 844.03 -631.35 842.51 C-632.27 840.1 -632.98 837.67 -633.66 835.18 C-634.36 832.75 -635.13 830.35 -635.91 827.94 C-636.21 827.01 -636.51 826.08 -636.82 825.13 C-637.44 823.21 -638.07 821.3 -638.69 819.39 C-640.53 813.68 -642.07 808.01 -643.26 802.12 C-643.44 801.24 -643.63 800.36 -643.82 799.45 C-644.11 798.06 -644.41 796.66 -644.69 795.26 C-645.22 793.06 -645.22 793.06 -646.23 790.82 C-647.49 787.5 -648.11 784.24 -648.76 780.75 C-649.47 776.95 -650.21 773.28 -651.31 769.58 C-652.28 766.05 -652.66 762.83 -652.88 759.19 C-652.96 758.04 -653.03 756.9 -653.11 755.72 C-653.16 754.86 -653.21 754.01 -653.26 753.12 C-653.92 753.12 -654.58 753.12 -655.26 753.12 C-655.32 752.27 -655.38 751.41 -655.44 750.53 C-655.57 748.88 -655.57 748.88 -655.69 747.19 C-655.78 746.08 -655.86 744.98 -655.94 743.85 C-655.96 741.21 -655.96 741.21 -657.26 740.12 C-657.74 736.92 -658.13 733.71 -658.51 730.49 C-658.66 727.01 -658.66 727.01 -660.26 724.12 C-662 714.2 -662.72 704.17 -663.26 694.12 C-663.59 694.12 -663.92 694.12 -664.26 694.12 C-664.25 693.19 -664.25 693.19 -664.24 692.24 C-664.2 685.78 -664.17 679.33 -664.15 672.87 C-664.14 670.46 -664.12 668.05 -664.11 665.64 C-664.08 662.18 -664.07 658.72 -664.06 655.26 C-664.05 654.17 -664.04 653.09 -664.03 651.97 C-664.03 650.97 -664.03 649.97 -664.03 648.94 C-664.03 648.06 -664.02 647.17 -664.02 646.26 C-664.06 643.91 -664.06 643.91 -666.26 642.12 C-666.44 639.57 -666.49 637.14 -666.44 634.59 C-666.43 633.8 -666.43 633.02 -666.42 632.2 C-666.29 622.11 -665.88 612.02 -665.46 601.94 C-665.32 598.57 -665.19 595.21 -665.06 591.84 C-664.97 589.69 -664.88 587.55 -664.79 585.4 C-664.75 584.4 -664.72 583.39 -664.68 582.36 C-664.64 581.44 -664.6 580.51 -664.55 579.56 C-664.52 578.75 -664.49 577.94 -664.45 577.1 C-664.26 575.12 -664.26 575.12 -663.26 573.12 C-662.99 570.67 -662.76 568.23 -662.57 565.77 C-662.45 564.26 -662.33 562.76 -662.2 561.25 C-662.01 558.88 -661.82 556.51 -661.63 554.14 C-661.45 551.85 -661.26 549.56 -661.07 547.27 C-661.02 546.58 -660.97 545.88 -660.92 545.16 C-660.51 540.3 -659.5 535.84 -658.26 531.12 C-657.98 529.62 -657.73 528.12 -657.51 526.61 C-657.4 525.84 -657.28 525.07 -657.17 524.28 C-657 523.09 -657 523.09 -656.82 521.87 C-655.88 515.67 -654.77 509.62 -653.14 503.56 C-651.64 497.75 -650.37 491.89 -649.06 486.04 C-647.4 478.67 -645.7 471.34 -643.44 464.12 C-643.1 463 -642.75 461.88 -642.39 460.73 C-641.83 458.94 -641.83 458.94 -641.26 457.12 C-640.87 455.88 -640.49 454.64 -640.1 453.36 C-635.59 438.78 -630.87 424.32 -625.26 410.12 C-624.68 408.63 -624.11 407.13 -623.53 405.64 C-620.61 398.05 -617.67 390.51 -614.26 383.12 C-613.3 380.94 -612.34 378.75 -611.38 376.56 C-609.76 373.04 -608 369.59 -606.26 366.12 C-605.64 364.88 -605.02 363.64 -604.4 362.4 C-603.42 360.45 -602.45 358.5 -601.47 356.56 C-599.7 353.01 -597.93 349.47 -596.17 345.92 C-590.83 335.14 -585.14 324.61 -579.15 314.18 C-577.29 310.95 -575.47 307.71 -573.69 304.44 C-570.8 299.21 -567.82 293.93 -564.26 289.12 C-563.6 289.12 -562.94 289.12 -562.26 289.12 C-561.99 288.4 -561.72 287.68 -561.44 286.94 C-560.26 284.13 -558.89 281.61 -557.32 279 C-556.82 278.15 -556.31 277.3 -555.79 276.43 C-554.41 274.35 -553.03 272.86 -551.26 271.12 C-547.38 266.08 -543.72 260.89 -540.26 255.56 C-536.23 249.44 -531.55 243.83 -526.82 238.25 C-522.07 232.59 -517.45 226.64 -513.54 220.37 C-507.37 211.6 -499.39 204.1 -491.82 196.55 C-490.84 195.57 -489.86 194.59 -488.89 193.62 C-486.86 191.58 -484.82 189.55 -482.79 187.53 C-480.21 184.95 -477.63 182.37 -475.05 179.78 C-473.04 177.77 -471.03 175.76 -469.01 173.75 C-467.61 172.34 -466.2 170.93 -464.79 169.52 C-458.42 163.17 -451.95 157.04 -444.76 151.62 C-441.86 149.4 -439.06 147.11 -436.32 144.69 C-428.89 138.11 -421.01 132.13 -413.05 126.21 C-411.43 125 -409.81 123.78 -408.21 122.54 C-403.51 118.9 -398.56 115.7 -393.55 112.52 C-389.13 109.71 -384.81 106.77 -380.54 103.73 C-375.18 99.96 -369.67 96.54 -364.01 93.25 C-362.5 92.36 -360.98 91.48 -359.47 90.59 C-358.39 89.96 -358.39 89.96 -357.28 89.31 C-349.54 84.78 -349.54 84.78 -342.01 79.94 C-339.17 78.06 -336.3 76.64 -333.26 75.12 C-331.1 73.99 -328.94 72.85 -326.79 71.71 C-300.78 57.93 -300.78 57.93 -290.21 53.92 C-288.11 53.12 -288.11 53.12 -285.76 51.62 C-281.82 49.26 -277.53 47.78 -273.26 46.12 C-270.67 45.11 -268.09 44.09 -265.51 43.06 C-264.57 42.69 -264.57 42.69 -263.61 42.32 C-260.84 41.22 -258.15 40.07 -255.5 38.69 C-250.85 36.44 -246.01 34.85 -241.13 33.19 C-240.11 32.83 -239.08 32.48 -238.02 32.11 C-231.11 29.74 -224.2 27.4 -217.26 25.12 C-216.33 24.81 -215.4 24.49 -214.44 24.16 C-200.2 19.51 -185.55 16.19 -170.98 12.76 C-168.73 12.23 -166.48 11.69 -164.23 11.15 C-158.02 9.66 -151.85 8.52 -145.52 7.65 C-142.14 7.15 -142.14 7.15 -138.43 6.16 C-131.18 4.51 -123.71 4.16 -116.32 3.56 C-114.05 3.37 -111.77 3.18 -109.5 2.99 C-107.46 2.82 -105.41 2.65 -103.37 2.48 C-100.35 2.31 -100.35 2.31 -98.26 1.12 C-96.71 1 -95.16 0.95 -93.6 0.92 C-92.62 0.9 -91.63 0.88 -90.62 0.86 C-88.99 0.83 -88.99 0.83 -87.32 0.81 C-86.17 0.79 -85.02 0.76 -83.83 0.74 C-80.64 0.69 -77.46 0.64 -74.27 0.59 C-72.26 0.56 -70.25 0.53 -68.24 0.5 C-45.49 0.14 -22.75 0.02 0 0 Z M-37.26 1.12 C-37.26 1.45 -37.26 1.78 -37.26 2.12 C-34.62 2.12 -31.98 2.12 -29.26 2.12 C-29.26 1.79 -29.26 1.46 -29.26 1.12 C-31.9 1.12 -34.54 1.12 -37.26 1.12 Z M31.74 1.12 C31.74 1.45 31.74 1.78 31.74 2.12 C33.39 2.12 35.04 2.12 36.74 2.12 C36.74 1.79 36.74 1.46 36.74 1.12 C35.09 1.12 33.44 1.12 31.74 1.12 Z M-56.26 57.12 C-59.29 57.4 -62.32 57.62 -65.36 57.81 C-67.23 57.93 -69.1 58.06 -70.97 58.18 C-73.92 58.37 -76.87 58.56 -79.82 58.75 C-82.67 58.93 -85.51 59.12 -88.36 59.31 C-89.23 59.36 -90.1 59.41 -91 59.46 C-96.32 59.83 -101.1 60.75 -106.26 62.12 C-108.12 62.41 -109.99 62.67 -111.87 62.87 C-112.86 62.98 -113.86 63.1 -114.89 63.21 C-115.92 63.33 -116.95 63.44 -118.01 63.56 C-126.33 64.54 -134.21 65.78 -142.26 68.12 C-147 69.35 -151.75 70.46 -156.55 71.47 C-165.3 73.32 -173.77 75.69 -182.28 78.48 C-185.66 79.58 -189.05 80.63 -192.44 81.69 C-193.11 81.89 -193.77 82.1 -194.45 82.31 C-198.7 83.64 -202.94 84.95 -207.19 86.25 C-215.54 88.82 -223.71 91.63 -231.85 94.8 C-234.12 95.68 -236.39 96.55 -238.66 97.42 C-246.97 100.57 -255 103.99 -262.94 107.97 C-267.35 110.16 -271.81 112.26 -276.26 114.37 C-283.28 117.72 -290.29 121.09 -297.26 124.56 C-297.87 124.87 -298.49 125.17 -299.12 125.49 C-302.66 127.26 -306.11 129.15 -309.54 131.13 C-311.19 132.08 -312.85 133.02 -314.51 133.95 C-322.97 138.71 -331.16 143.78 -339.26 149.12 C-340.84 150.16 -340.84 150.16 -342.45 151.22 C-347.99 154.89 -353.46 158.64 -358.89 162.47 C-361.18 164.07 -363.49 165.6 -365.82 167.12 C-373.35 172.12 -380.25 177.92 -387.21 183.65 C-389.43 185.45 -391.65 187.22 -393.89 188.97 C-394.51 189.45 -395.13 189.93 -395.77 190.43 C-396.98 191.37 -398.19 192.3 -399.4 193.23 C-402.94 195.98 -406.12 198.9 -409.26 202.12 C-410.47 203.22 -411.7 204.31 -412.94 205.37 C-422.17 213.38 -430.97 221.68 -439.59 230.33 C-441.45 232.19 -443.31 234.05 -445.18 235.91 C-451.08 241.81 -456.91 247.71 -462.26 254.12 C-463.06 255.07 -463.87 256.02 -464.69 257 C-466.45 258.95 -466.45 258.95 -466.26 261.12 C-466.92 261.12 -467.58 261.12 -468.26 261.12 C-469.59 262.88 -470.92 264.65 -472.21 266.44 C-475.27 270.45 -478.61 274.23 -481.94 278.02 C-485.03 281.56 -487.7 285.17 -490.26 289.12 C-492.37 292.01 -494.51 294.87 -496.65 297.73 C-498.44 299.92 -498.44 299.92 -498.26 302.12 C-499.25 302.45 -500.24 302.78 -501.26 303.12 C-502.93 305.29 -502.93 305.29 -504.51 308 C-505.12 308.99 -505.73 309.99 -506.36 311.01 C-507.3 312.55 -507.3 312.55 -508.26 314.12 C-509.46 316.02 -510.67 317.92 -511.88 319.81 C-514.3 323.61 -516.7 327.42 -519.08 331.24 C-519.87 332.5 -520.66 333.76 -521.46 335.01 C-524.42 339.64 -527.06 344.39 -529.66 349.22 C-531.26 352.12 -532.93 354.97 -534.63 357.81 C-538.55 364.48 -541.96 371.37 -545.36 378.31 C-546.57 380.76 -547.82 383.19 -549.07 385.62 C-550.77 389.03 -552.18 392.44 -553.46 396.02 C-554.39 398.48 -555.47 400.85 -556.57 403.25 C-561.24 413.42 -565.56 423.58 -569.17 434.17 C-570.25 437.35 -571.39 440.43 -572.72 443.51 C-574.6 447.92 -576.13 452.39 -577.63 456.94 C-577.94 457.85 -578.24 458.77 -578.56 459.72 C-581.42 468.45 -583.9 477.25 -586.26 486.12 C-586.62 487.47 -586.98 488.81 -587.35 490.15 C-588.33 493.81 -589.3 497.46 -590.26 501.12 C-590.5 502.04 -590.74 502.96 -591 503.91 C-594.58 517.8 -597.83 531.92 -599.9 546.11 C-600.26 548.12 -600.26 548.12 -601.26 550.12 C-601.54 552.13 -601.77 554.14 -601.98 556.15 C-602.1 557.36 -602.23 558.56 -602.36 559.8 C-602.49 561.06 -602.62 562.32 -602.76 563.62 C-603.01 566.11 -603.27 568.6 -603.54 571.09 C-603.65 572.2 -603.77 573.31 -603.88 574.45 C-604.26 577.12 -604.26 577.12 -605.26 579.12 C-606.36 589.42 -606.41 599.78 -606.39 610.12 C-606.39 611.61 -606.39 613.09 -606.39 614.58 C-606.39 617.67 -606.39 620.76 -606.39 623.86 C-606.38 627.77 -606.39 631.68 -606.39 635.6 C-606.39 638.66 -606.39 641.72 -606.39 644.79 C-606.39 646.23 -606.39 647.67 -606.39 649.11 C-607.4 665.53 -607.4 665.53 -604.26 681.12 C-603.99 683.42 -603.77 685.73 -603.57 688.04 C-603.45 689.45 -603.33 690.87 -603.2 692.28 C-603.01 694.51 -602.82 696.73 -602.63 698.96 C-602 706.52 -601.27 713.78 -599.26 721.12 C-598.69 724.51 -598.26 727.91 -597.82 731.31 C-596.88 738.14 -595.81 744.84 -594.14 751.54 C-592.92 756.49 -591.81 761.46 -590.69 766.44 C-588.61 775.69 -586.37 784.86 -583.82 794 C-583.49 795.18 -583.49 795.18 -583.15 796.39 C-579.72 808.66 -575.89 820.67 -571.32 832.56 C-570.82 833.88 -570.82 833.88 -570.31 835.22 C-566.04 846.79 -566.04 846.79 -560.82 857.94 C-558.92 861.64 -557.38 865.34 -555.94 869.25 C-553.23 876.49 -549.8 883.28 -546.27 890.14 C-545.29 892.05 -544.34 893.97 -543.4 895.9 C-539.99 902.85 -536.36 909.56 -532.26 916.12 C-530.9 918.31 -529.55 920.5 -528.19 922.69 C-527.17 924.35 -527.17 924.35 -526.12 926.04 C-524.63 928.5 -523.23 930.96 -521.88 933.5 C-514.58 946.89 -505.09 959.34 -496.05 971.58 C-494.26 974.12 -494.26 974.12 -492.65 976.95 C-492.19 977.67 -491.73 978.38 -491.26 979.12 C-490.6 979.12 -489.94 979.12 -489.26 979.12 C-489 979.86 -488.75 980.6 -488.49 981.35 C-487.17 984.31 -485.72 986.09 -483.51 988.44 C-480.96 991.21 -478.54 993.96 -476.32 997 C-470.31 1005.17 -463.87 1012.68 -456.61 1019.78 C-450.97 1025.4 -445.91 1031.61 -440.9 1037.8 C-437.73 1041.63 -434.36 1044.9 -430.58 1048.12 C-427.84 1050.49 -425.17 1052.92 -422.51 1055.37 C-422 1055.84 -421.5 1056.3 -420.98 1056.78 C-418.86 1058.72 -416.75 1060.67 -414.64 1062.61 C-413.57 1063.6 -412.5 1064.59 -411.43 1065.57 C-409.97 1066.92 -408.51 1068.27 -407.05 1069.62 C-402.59 1073.62 -397.95 1077.39 -393.26 1081.12 C-392.25 1081.93 -391.24 1082.74 -390.2 1083.57 C-382.61 1089.6 -374.89 1095.38 -366.95 1100.94 C-365.31 1102.08 -363.68 1103.24 -362.05 1104.4 C-348.66 1113.81 -334.7 1122.1 -320.46 1130.15 C-317.11 1132.06 -313.77 1133.99 -310.46 1135.97 C-309.7 1136.42 -308.95 1136.86 -308.17 1137.33 C-306.79 1138.16 -305.41 1138.99 -304.03 1139.83 C-299.94 1142.27 -295.79 1144.28 -291.42 1146.17 C-288.27 1147.56 -285.25 1149.16 -282.19 1150.75 C-275.21 1154.31 -268.06 1157.42 -260.82 1160.44 C-259.81 1160.86 -258.81 1161.28 -257.77 1161.71 C-252.68 1163.81 -247.58 1165.74 -242.34 1167.43 C-239.02 1168.54 -235.8 1169.86 -232.57 1171.19 C-223.23 1175.15 -223.23 1175.15 -213.26 1176.12 C-212.93 1176.78 -212.6 1177.44 -212.26 1178.12 C-210.09 1179.01 -210.09 1179.01 -207.44 1179.74 C-205.95 1180.19 -205.95 1180.19 -204.43 1180.64 C-203.39 1180.94 -202.34 1181.25 -201.26 1181.56 C-199.22 1182.16 -197.17 1182.77 -195.13 1183.37 C-194.14 1183.66 -193.15 1183.95 -192.12 1184.25 C-188.79 1185.26 -185.51 1186.38 -182.23 1187.54 C-180.1 1188.17 -178.09 1188.42 -175.88 1188.62 C-172.26 1189.12 -172.26 1189.12 -170.94 1190.58 C-168.43 1192.87 -166.02 1192.84 -162.69 1193.25 C-156.41 1194.05 -156.41 1194.05 -154.26 1195.12 C-151.92 1194.84 -149.58 1194.51 -147.26 1194.12 C-147.26 1194.78 -147.26 1195.44 -147.26 1196.12 C-146.34 1196.26 -145.43 1196.39 -144.48 1196.53 C-143.3 1196.7 -142.11 1196.88 -140.88 1197.06 C-139.7 1197.23 -138.52 1197.41 -137.3 1197.59 C-134.26 1198.12 -134.26 1198.12 -132.26 1199.12 C-130.45 1199.33 -128.63 1199.49 -126.82 1199.62 C-123.69 1199.86 -121.24 1200.13 -118.26 1201.12 C-115.92 1201.16 -113.59 1201.17 -111.26 1201.12 C-110.93 1201.78 -110.6 1202.44 -110.26 1203.12 C-108.28 1202.79 -106.3 1202.46 -104.26 1202.12 C-103.93 1202.78 -103.6 1203.44 -103.26 1204.12 C-99.96 1203.79 -96.66 1203.46 -93.26 1203.12 C-92.93 1203.78 -92.6 1204.44 -92.26 1205.12 C-89.29 1205.58 -89.29 1205.58 -85.7 1205.72 C-84.72 1205.78 -84.72 1205.78 -83.71 1205.84 C-81.6 1205.96 -79.49 1206.08 -77.38 1206.19 C-75.28 1206.3 -73.18 1206.42 -71.08 1206.54 C-69.16 1206.65 -67.25 1206.76 -65.34 1206.86 C-62.26 1207.12 -62.26 1207.12 -59.26 1208.12 C-57.27 1208.19 -55.29 1208.2 -53.3 1208.18 C-51.46 1208.16 -51.46 1208.16 -49.57 1208.14 C-48.22 1208.11 -46.87 1208.09 -45.51 1208.07 C-44.1 1208.05 -42.69 1208.03 -41.29 1208.01 C-38.31 1207.97 -35.34 1207.93 -32.37 1207.88 C-29.38 1207.83 -26.39 1207.79 -23.4 1207.76 C-7.96 1207.57 7.43 1207.23 22.84 1206.14 C24.03 1206.06 25.23 1205.97 26.46 1205.89 C31.46 1205.95 31.46 1205.95 35.74 1204.12 C37.57 1203.85 39.41 1203.63 41.25 1203.44 C42.38 1203.32 43.51 1203.19 44.68 1203.07 C47.07 1202.82 49.46 1202.57 51.85 1202.32 C58 1201.65 63.77 1200.71 69.74 1199.12 C73.57 1198.57 77.41 1198.13 81.25 1197.69 C84.43 1197.17 86.79 1196.34 89.74 1195.12 C92.09 1194.6 94.44 1194.13 96.81 1193.69 C102.6 1192.58 108.32 1191.28 114.04 1189.81 C116.49 1189.19 118.95 1188.64 121.43 1188.12 C124.97 1187.35 128.35 1186.28 131.78 1185.12 C134.79 1184.11 137.8 1183.11 140.81 1182.12 C143.93 1181.1 147.03 1180.07 150.14 1179.04 C151.75 1178.52 153.35 1177.99 154.95 1177.46 C163.51 1174.66 171.94 1171.77 180.22 1168.2 C182.42 1167.26 184.63 1166.39 186.89 1165.56 C191.46 1163.88 195.94 1162.01 200.43 1160.12 C201.26 1159.78 202.09 1159.44 202.94 1159.08 C207.09 1157.34 210.91 1155.49 214.74 1153.12 C216.15 1152.55 217.56 1152.01 218.99 1151.5 C224.78 1149.26 230.15 1146.35 235.59 1143.38 C239.9 1141.05 244.21 1138.98 248.74 1137.12 C248.74 1136.46 248.74 1135.8 248.74 1135.12 C249.55 1134.9 250.35 1134.67 251.18 1134.44 C259.68 1131.3 267.17 1126.01 274.74 1121.12 C276.49 1120.02 278.24 1118.91 279.99 1117.81 C290.6 1111.04 300.97 1104.15 310.84 1096.35 C312.75 1094.89 314.71 1093.48 316.71 1092.15 C320.02 1089.94 323.13 1087.54 326.24 1085.06 C333.51 1079.28 333.51 1079.28 337.1 1076.63 C348.62 1068.02 359.94 1057.84 368.8 1046.49 C371.13 1043.65 373.78 1041.42 376.57 1039.03 C380.31 1035.75 383.8 1032.21 387.31 1028.69 C388.02 1027.97 388.74 1027.26 389.48 1026.53 C393.52 1022.47 397.39 1018.32 401.12 1013.99 C402.62 1012.27 404.14 1010.59 405.69 1008.93 C406.15 1008.44 406.6 1007.95 407.07 1007.45 C407.99 1006.47 408.9 1005.5 409.82 1004.53 C412.86 1001.26 415.29 997.83 417.74 994.12 C419.21 992.43 420.71 990.76 422.24 989.12 C425.46 985.61 428.19 982.16 430.74 978.12 C432 976.37 433.28 974.62 434.56 972.87 C440.58 964.61 446.32 956.31 451.63 947.56 C453.83 943.95 456.13 940.41 458.43 936.87 C461.24 932.53 463.91 928.16 466.36 923.61 C468.64 919.51 471.09 915.52 473.53 911.53 C475.79 907.8 477.84 904.05 479.74 900.12 C480.34 898.92 480.94 897.73 481.54 896.53 C482.55 894.52 483.55 892.5 484.56 890.49 C486.18 887.24 487.81 884 489.47 880.78 C493.25 873.4 496.67 865.9 499.99 858.31 C500.42 857.34 500.84 856.38 501.28 855.38 C503.74 849.71 505.9 844.02 507.74 838.12 C510.43 829.72 510.43 829.72 512.24 826.25 C513.93 822.74 514.82 819.33 515.8 815.57 C516.98 811.26 518.32 807.01 519.68 802.75 C519.94 801.92 520.21 801.09 520.48 800.23 C521.58 796.74 522.7 793.26 523.84 789.78 C528.14 776.5 531.31 762.58 533.29 748.76 C533.74 746.12 533.74 746.12 534.7 742.64 C536.2 736.77 536.68 730.76 537.31 724.75 C537.55 722.41 537.8 720.07 538.06 717.72 C538.17 716.7 538.27 715.67 538.39 714.61 C538.74 712.12 538.74 712.12 539.74 710.12 C539.95 708.42 540.11 706.71 540.24 705.01 C540.32 703.94 540.41 702.87 540.49 701.77 C540.57 700.6 540.66 699.44 540.74 698.25 C540.83 697.06 540.92 695.87 541.01 694.65 C541.73 684.4 542.13 674.15 542.4 663.89 C542.43 662.77 542.46 661.65 542.5 660.49 C542.53 659.01 542.53 659.01 542.57 657.49 C542.74 655.12 542.74 655.12 543.74 653.12 C543.83 651.76 543.86 650.4 543.86 649.04 C543.86 648.2 543.86 647.36 543.86 646.49 C543.85 645.58 543.85 644.68 543.84 643.74 C543.84 642.81 543.84 641.88 543.84 640.92 C543.83 637.95 543.82 634.97 543.81 632 C543.8 629.98 543.8 627.97 543.79 625.95 C543.78 621.01 543.76 616.07 543.74 611.12 C543.41 611.12 543.08 611.12 542.74 611.12 C542.74 604.19 542.74 597.26 542.74 590.12 C542.41 590.12 542.08 590.12 541.74 590.12 C541.74 585.5 541.74 580.88 541.74 576.12 C541.08 576.12 540.42 576.12 539.74 576.12 C539.74 571.5 539.74 566.88 539.74 562.12 C539.41 562.12 539.08 562.12 538.74 562.12 C538.74 559.15 538.74 556.18 538.74 553.12 C538.08 553.12 537.42 553.12 536.74 553.12 C536.68 552.06 536.62 551 536.56 549.9 C535.95 539.49 535.95 539.49 534.74 529.12 C534.08 529.12 533.42 529.12 532.74 529.12 C533.05 527.82 533.05 527.82 533.37 526.5 C533.79 522.66 533.04 520.72 531.74 517.12 C531.3 514.46 531.02 511.81 530.74 509.12 C530.08 509.12 529.42 509.12 528.74 509.12 C528.69 508.53 528.64 507.93 528.59 507.32 C528.01 500.84 526.99 494.51 525.74 488.12 C525.08 488.12 524.42 488.12 523.74 488.12 C523.69 487.48 523.64 486.84 523.59 486.18 C523.14 480.91 522.37 476.18 520.74 471.12 C520.1 469 519.45 466.87 518.81 464.75 C516.03 455.77 512.98 446.94 509.74 438.12 C509.19 436.59 508.63 435.05 508.07 433.51 C507.46 431.84 506.85 430.17 506.24 428.5 C505.96 427.71 505.67 426.92 505.38 426.11 C503.65 421.37 501.74 416.75 499.65 412.15 C498.51 409.61 497.47 407.02 496.43 404.44 C494.09 398.78 491.4 393.35 488.63 387.9 C486.57 383.83 484.66 379.7 482.74 375.56 C479.34 368.26 475.66 361.17 471.74 354.12 C471.35 353.4 470.95 352.67 470.55 351.92 C464.43 340.7 457.94 329.67 450.75 319.1 C448.06 315.12 445.48 311.07 442.89 307.02 C441.84 305.38 440.79 303.75 439.74 302.12 C439.39 301.55 439.03 300.97 438.66 300.38 C437.74 298.92 436.75 297.52 435.74 296.12 C435.08 296.12 434.42 296.12 433.74 296.12 C433.53 295.45 433.31 294.78 433.09 294.09 C431.31 290.17 428.86 287.02 426.24 283.62 C425.44 282.57 425.44 282.57 424.62 281.49 C423 279.37 421.37 277.24 419.74 275.12 C418.83 273.93 417.92 272.73 417.01 271.54 C414.6 268.39 412.18 265.25 409.74 262.12 C409.08 261.26 408.42 260.4 407.73 259.52 C397.68 246.69 386.06 235.28 374.54 223.79 C372.05 221.3 369.55 218.8 367.06 216.3 C365.45 214.7 363.84 213.09 362.23 211.48 C361.13 210.38 361.13 210.38 360.01 209.25 C352.04 201.31 343.48 194.2 334.74 187.12 C333.89 186.43 333.04 185.73 332.17 185.02 C327.21 181 322.16 177.24 316.87 173.67 C314.95 172.27 313.4 170.82 311.74 169.12 C309.75 167.78 307.75 166.45 305.74 165.12 C304.55 164.23 303.36 163.34 302.18 162.44 C293.37 155.78 284.27 149.69 274.74 144.12 C272.3 142.67 269.87 141.21 267.43 139.75 C266.79 139.36 266.14 138.98 265.48 138.58 C261.38 136.13 257.34 133.61 253.31 131.06 C241.06 123.51 227.94 117.78 214.74 112.12 C212.41 111.1 210.08 110.06 207.75 109.02 C206.33 108.38 204.91 107.76 203.48 107.13 C199.21 105.26 195.01 103.3 190.86 101.15 C184.61 98.12 178.14 95.73 171.62 93.37 C170.18 92.85 170.18 92.85 168.72 92.32 C149.4 85.31 149.4 85.31 129.59 79.86 C126.23 78.99 123.02 77.85 119.74 76.69 C112.11 74.02 104.34 72.52 96.41 71.03 C92.69 70.32 89.03 69.5 85.37 68.56 C73.75 65.58 62.29 63.55 50.39 62.12 C49.43 62.01 48.47 61.89 47.48 61.77 C46.18 61.62 46.18 61.62 44.86 61.46 C42.74 61.12 42.74 61.12 40.74 60.12 C39.37 59.95 37.98 59.84 36.6 59.75 C35.75 59.69 34.89 59.64 34.01 59.58 C32.63 59.49 32.63 59.49 31.21 59.4 C30.26 59.34 29.32 59.28 28.34 59.21 C25.31 59.01 22.28 58.82 19.24 58.62 C15.25 58.37 11.26 58.11 7.27 57.84 C5.89 57.76 5.89 57.76 4.47 57.67 C3.62 57.61 2.77 57.55 1.89 57.5 C1.13 57.45 0.38 57.4 -0.4 57.35 C-2.26 57.12 -2.26 57.12 -4.26 56.12 C-5.85 56.03 -7.45 55.99 -9.04 55.99 C-10.04 55.99 -11.03 55.99 -12.06 55.98 C-13.67 55.99 -13.67 55.99 -15.32 55.99 C-16.42 55.99 -17.52 55.99 -18.66 55.99 C-20.99 55.99 -23.33 55.99 -25.66 55.99 C-29.24 56 -32.82 55.99 -36.41 55.99 C-38.67 55.99 -40.93 55.99 -43.19 55.99 C-44.27 55.99 -45.35 55.99 -46.46 55.98 C-47.45 55.99 -48.45 55.99 -49.47 55.99 C-50.79 55.99 -50.79 55.99 -52.13 56 C-54.31 55.99 -54.31 55.99 -56.26 57.12 Z M-645.26 472.12 C-644.26 474.12 -644.26 474.12 -644.26 474.12 Z M-659.26 539.12 C-658.26 541.12 -658.26 541.12 -658.26 541.12 Z M-660.26 547.12 C-659.26 549.12 -659.26 549.12 -659.26 549.12 Z M-661.26 558.12 C-660.26 560.12 -660.26 560.12 -660.26 560.12 Z M-663.26 575.12 C-663.26 577.1 -663.26 579.08 -663.26 581.12 C-662.93 581.12 -662.6 581.12 -662.26 581.12 C-662.26 579.14 -662.26 577.16 -662.26 575.12 C-662.59 575.12 -662.92 575.12 -663.26 575.12 Z M-664.26 605.12 C-664.26 611.06 -664.26 617 -664.26 623.12 C-663.93 623.12 -663.6 623.12 -663.26 623.12 C-663.26 617.18 -663.26 611.24 -663.26 605.12 C-663.59 605.12 -663.92 605.12 -664.26 605.12 Z M542.74 655.12 C542.74 658.42 542.74 661.72 542.74 665.12 C543.07 665.12 543.4 665.12 543.74 665.12 C543.74 661.82 543.74 658.52 543.74 655.12 C543.41 655.12 543.08 655.12 542.74 655.12 Z M541.74 683.12 C542.74 686.12 542.74 686.12 542.74 686.12 Z M538.74 712.12 C539.74 714.12 539.74 714.12 539.74 714.12 Z " fill="#F5F9FA" transform="translate(674.2572631835938,3.877063751220703)"/>
<path d="M0 0 C1.45 -0.01 1.45 -0.01 2.92 -0.01 C3.98 -0.01 5.05 -0.01 6.14 -0.01 C7.26 -0.01 8.37 -0.02 9.52 -0.02 C13.22 -0.03 16.93 -0.03 20.63 -0.03 C23.2 -0.04 25.76 -0.04 28.33 -0.04 C33.71 -0.05 39.1 -0.05 44.49 -0.05 C50.71 -0.05 56.93 -0.06 63.16 -0.08 C69.15 -0.09 75.13 -0.1 81.12 -0.09 C83.67 -0.1 86.21 -0.1 88.76 -0.11 C92.32 -0.12 95.88 -0.12 99.44 -0.11 C100.5 -0.11 101.56 -0.12 102.65 -0.13 C103.62 -0.12 104.59 -0.12 105.59 -0.11 C106.85 -0.11 106.85 -0.11 108.14 -0.12 C113.23 0.44 116.15 3.37 119.42 7.13 C123.59 14.39 126.37 22.36 129.42 30.13 C130.09 31.78 130.75 33.43 131.42 35.07 C133.22 39.57 134.95 44.1 136.67 48.63 C137.08 49.7 137.08 49.7 137.49 50.78 C139.42 55.9 139.42 55.9 139.42 58.13 C140.08 58.13 140.74 58.13 141.42 58.13 C140.76 54.5 140.1 50.87 139.42 47.13 C145.1 42.87 149.12 42.98 156.07 43 C157.34 43 157.34 43 158.64 43 C160.44 43 162.24 43 164.04 43 C166.75 43.01 169.46 43 172.17 43 C200.08 42.98 221.79 47.13 242.42 67.13 C255.67 81.42 254.86 100.39 254.81 118.65 C254.81 121.05 254.82 123.45 254.82 125.84 C254.84 131.04 254.84 136.24 254.83 141.44 C254.82 149.17 254.83 156.89 254.84 164.62 C254.86 178.43 254.86 192.24 254.86 206.05 C254.85 218.13 254.86 230.22 254.86 242.3 C254.86 243.92 254.86 245.55 254.86 247.17 C254.86 249.61 254.87 252.06 254.87 254.5 C254.88 277.23 254.88 299.96 254.87 322.68 C254.87 323.97 254.87 323.97 254.87 325.28 C254.87 332.23 254.87 339.18 254.87 346.14 C254.86 373.25 254.86 400.37 254.89 427.49 C254.91 457.97 254.93 488.46 254.92 518.94 C254.92 522.19 254.92 525.45 254.92 528.7 C254.92 529.5 254.92 530.3 254.92 531.13 C254.91 543.2 254.92 555.27 254.94 567.35 C254.95 581.08 254.95 594.82 254.93 608.55 C254.92 616.23 254.92 623.91 254.94 631.59 C254.95 637.33 254.94 643.08 254.93 648.82 C254.92 651.13 254.93 653.45 254.94 655.77 C255.02 676.06 253.17 691.86 238.8 707.38 C228.83 716.83 218.78 720.23 205.42 721.13 C205.42 722.12 205.42 723.11 205.42 724.13 C159.5 724.19 113.57 724.23 67.65 724.26 C66.63 724.26 66.63 724.26 65.59 724.26 C50.83 724.27 36.07 724.28 21.31 724.29 C14.07 724.29 6.84 724.29 -0.4 724.3 C-1.48 724.3 -1.48 724.3 -2.58 724.3 C-25.95 724.31 -49.31 724.34 -72.68 724.36 C-96.68 724.39 -120.68 724.41 -144.68 724.42 C-148.06 724.42 -151.45 724.42 -154.84 724.42 C-155.5 724.42 -156.17 724.42 -156.86 724.42 C-166.94 724.42 -177.02 724.43 -187.1 724.45 C-198.56 724.47 -210.03 724.48 -221.49 724.47 C-227.34 724.47 -233.19 724.48 -239.05 724.49 C-244.4 724.51 -249.75 724.51 -255.1 724.5 C-257.04 724.5 -258.98 724.5 -260.93 724.51 C-263.55 724.52 -266.18 724.51 -268.81 724.5 C-269.57 724.51 -270.34 724.52 -271.13 724.53 C-273.24 724.51 -273.24 724.51 -276.58 724.13 C-277.24 723.14 -277.9 722.15 -278.58 721.13 C-280.58 720.75 -282.59 720.37 -284.59 720 C-291.29 718.06 -297.43 714.37 -303.58 711.13 C-304.24 710.8 -304.9 710.47 -305.58 710.13 C-305.58 709.47 -305.58 708.81 -305.58 708.13 C-306.7 707.76 -306.7 707.76 -307.83 707.38 C-317.01 703.21 -322.43 691.78 -325.84 682.83 C-327.85 676.75 -329.08 671.52 -328.58 665.13 C-328.91 665.13 -329.24 665.13 -329.58 665.13 C-329.67 611.51 -329.74 557.88 -329.79 504.26 C-329.79 503.46 -329.79 502.67 -329.79 501.85 C-329.81 484.59 -329.82 467.33 -329.83 450.07 C-329.84 441.6 -329.85 433.14 -329.85 424.67 C-329.85 423.83 -329.86 422.99 -329.86 422.12 C-329.88 394.84 -329.91 367.55 -329.96 340.27 C-330.01 312.22 -330.04 284.17 -330.05 256.12 C-330.05 252.16 -330.05 248.19 -330.05 244.23 C-330.05 243.45 -330.05 242.67 -330.05 241.86 C-330.06 229.32 -330.08 216.78 -330.11 204.24 C-330.14 191.62 -330.15 179 -330.15 166.38 C-330.14 159.54 -330.15 152.71 -330.18 145.88 C-330.2 139.61 -330.2 133.35 -330.18 127.09 C-330.18 124.83 -330.19 122.57 -330.2 120.31 C-330.35 98.56 -326.28 78.37 -311.74 61.25 C-308.12 57.7 -304.07 55.42 -299.58 53.13 C-298.76 52.68 -297.95 52.23 -297.11 51.77 C-285.36 45.48 -273.44 43.99 -260.32 43.93 C-259.25 43.92 -258.18 43.92 -257.08 43.91 C-254.83 43.9 -252.58 43.9 -250.34 43.89 C-246.89 43.88 -243.45 43.85 -240.01 43.82 C-237.82 43.81 -235.63 43.81 -233.44 43.81 C-232.41 43.79 -231.38 43.78 -230.32 43.77 C-228.89 43.77 -228.89 43.77 -227.42 43.78 C-226.58 43.77 -225.74 43.77 -224.87 43.77 C-222.03 44.22 -220.65 45.16 -218.58 47.13 C-218.34 49.59 -218.34 49.59 -218.7 52.38 C-218.83 53.35 -218.95 54.33 -219.08 55.33 C-219.68 58.71 -220.49 61.87 -221.58 65.13 C-220.92 65.46 -220.26 65.79 -219.58 66.13 C-219.5 65.33 -219.41 64.52 -219.33 63.7 C-217.66 55.78 -213.4 48.9 -209.57 41.85 C-207.53 38.06 -205.73 34.27 -204.14 30.26 C-202.06 25.07 -199.65 20.1 -197.08 15.13 C-196.71 14.4 -196.34 13.67 -195.96 12.92 C-193.19 7.65 -190.44 4.09 -184.58 2.13 C-182.21 2.03 -179.84 1.99 -177.47 1.98 C-176.75 1.98 -176.02 1.97 -175.27 1.97 C-172.82 1.96 -170.38 1.95 -167.93 1.94 C-166.18 1.94 -164.43 1.93 -162.68 1.92 C-158.9 1.9 -155.13 1.89 -151.36 1.87 C-145.4 1.85 -139.44 1.83 -133.47 1.8 C-119.74 1.73 -106.01 1.68 -92.29 1.62 C-79.7 1.57 -67.12 1.52 -54.53 1.46 C-48.6 1.43 -42.67 1.4 -36.74 1.38 C-33.06 1.37 -29.37 1.35 -25.69 1.33 C-23.98 1.33 -22.26 1.32 -20.55 1.32 C-18.22 1.31 -15.89 1.3 -13.56 1.29 C-12.25 1.28 -10.94 1.27 -9.6 1.27 C-6.15 1.11 -3.54 0.01 0 0 Z M-4.58 1.13 C-4.58 1.46 -4.58 1.79 -4.58 2.13 C27.43 2.13 59.44 2.13 92.42 2.13 C92.42 1.8 92.42 1.47 92.42 1.13 C60.41 1.13 28.4 1.13 -4.58 1.13 Z M-180.58 47.13 C-180.62 50.15 -180.62 50.15 -179.58 53.13 C-177.57 54.81 -177.57 54.81 -174.89 55.88 C-170.15 58.24 -165.91 60.85 -161.64 63.95 C-161.06 64.37 -160.47 64.79 -159.87 65.23 C-156.92 67.38 -154 69.57 -151.09 71.78 C-150.54 72.2 -149.99 72.61 -149.42 73.04 C-147.91 74.19 -146.41 75.36 -144.91 76.52 C-142.78 78.32 -142.78 78.32 -140.58 78.13 C-140.58 78.79 -140.58 79.45 -140.58 80.13 C-139.2 81.1 -137.82 82.05 -136.4 82.95 C-133.06 85.12 -129.94 87.6 -126.77 90.01 C-121.83 93.74 -116.88 97.36 -111.7 100.73 C-104.77 105.32 -98.21 110.4 -91.7 115.57 C-83.71 121.92 -75.36 127.65 -66.83 133.26 C-52.32 142.93 -52.32 142.93 -50.58 148.13 C-50.21 154.43 -52.24 159.02 -55.52 164.29 C-56.75 166.07 -56.75 166.07 -56.58 168.13 C-57.57 168.46 -58.56 168.79 -59.58 169.13 C-61.28 171.41 -61.28 171.41 -62.89 174.2 C-65.44 178.35 -68.09 182.27 -71.12 186.09 C-72.71 188.32 -74.04 190.65 -75.38 193.04 C-77.84 197.34 -80.48 201.54 -83.08 205.76 C-83.65 206.69 -84.22 207.61 -84.8 208.57 C-87.52 212.97 -90.2 217.21 -93.58 221.13 C-100.72 220.07 -105.48 218.28 -109.99 212.25 C-110.43 211.61 -110.87 210.98 -111.33 210.32 C-112.07 209.27 -112.81 208.22 -113.58 207.13 C-114.24 207.13 -114.9 207.13 -115.58 207.13 C-115.98 206.02 -115.98 206.02 -116.39 204.88 C-117.55 202.21 -118.75 200.38 -120.58 198.13 C-121.2 197.36 -121.81 196.59 -122.45 195.79 C-123.15 194.92 -123.86 194.04 -124.58 193.13 C-126.28 190.95 -127.96 188.76 -129.64 186.57 C-130.07 186.01 -130.51 185.45 -130.95 184.87 C-133.21 181.93 -135.44 178.98 -137.64 176.01 C-140.75 171.83 -144.08 167.84 -147.4 163.83 C-149.85 160.8 -152.15 157.69 -154.39 154.5 C-154.78 154.05 -155.17 153.6 -155.58 153.13 C-156.24 153.13 -156.9 153.13 -157.58 153.13 C-157.8 152.45 -158.03 151.76 -158.26 151.06 C-159.93 147.35 -162.21 144.52 -164.77 141.38 C-165.76 140.14 -166.76 138.89 -167.76 137.65 C-168.24 137.04 -168.72 136.44 -169.22 135.82 C-173.03 131.08 -176.78 126.31 -180.27 121.32 C-182.36 118.25 -182.36 118.25 -184.41 116.33 C-187.04 113.67 -189.3 110.78 -191.58 107.82 C-192.55 106.57 -193.53 105.32 -194.5 104.08 C-195 103.43 -195.51 102.78 -196.03 102.12 C-206.55 87.32 -206.55 87.32 -219.58 75.13 C-222.55 74.78 -222.55 74.78 -225.93 74.75 C-227.17 74.72 -228.42 74.69 -229.7 74.65 C-231 74.62 -232.3 74.6 -233.64 74.57 C-236.22 74.51 -238.79 74.45 -241.36 74.38 C-242.51 74.36 -243.65 74.33 -244.83 74.31 C-247.58 74.13 -247.58 74.13 -249.58 73.13 C-252.59 72.87 -255.62 72.9 -258.64 72.88 C-259.46 72.86 -260.29 72.84 -261.13 72.82 C-269.74 72.77 -276.55 75.21 -283.95 79.57 C-284.95 80.15 -285.95 80.72 -286.98 81.32 C-293.51 85.87 -296.28 93.72 -297.68 101.31 C-298.6 106.65 -298.86 111.79 -298.83 117.19 C-298.83 118.15 -298.84 119.1 -298.84 120.08 C-298.85 123.26 -298.84 126.44 -298.83 129.62 C-298.84 131.93 -298.84 134.24 -298.84 136.54 C-298.85 142.88 -298.85 149.21 -298.84 155.54 C-298.84 161.67 -298.84 167.8 -298.85 173.93 C-298.86 187.24 -298.86 200.55 -298.85 213.86 C-298.85 225.5 -298.84 237.15 -298.85 248.8 C-298.85 249.57 -298.85 250.34 -298.85 251.14 C-298.85 254.28 -298.85 257.41 -298.85 260.55 C-298.86 289.97 -298.85 319.4 -298.84 348.82 C-298.83 374.96 -298.83 401.09 -298.84 427.23 C-298.85 456.6 -298.86 485.97 -298.85 515.34 C-298.85 518.48 -298.85 521.61 -298.85 524.74 C-298.85 525.51 -298.85 526.28 -298.85 527.07 C-298.84 538.71 -298.85 550.35 -298.85 561.99 C-298.86 575.23 -298.86 588.46 -298.85 601.7 C-298.84 608.45 -298.84 615.2 -298.84 621.96 C-298.85 628.14 -298.85 634.32 -298.84 640.5 C-298.83 642.73 -298.84 644.97 -298.84 647.21 C-298.85 650.25 -298.84 653.29 -298.83 656.33 C-298.84 657.63 -298.84 657.63 -298.85 658.96 C-298.8 666.47 -297.84 673.77 -294.08 680.38 C-293.66 681.17 -293.23 681.96 -292.8 682.77 C-288.22 687.64 -282.03 690.35 -275.38 690.75 C-273.49 690.77 -271.6 690.76 -269.71 690.73 C-268.14 690.73 -268.14 690.73 -266.53 690.74 C-263.02 690.74 -259.52 690.72 -256.01 690.69 C-253.48 690.68 -250.95 690.68 -248.42 690.68 C-242.95 690.68 -237.49 690.66 -232.02 690.63 C-224 690.59 -215.98 690.57 -207.96 690.56 C-194.71 690.54 -181.47 690.5 -168.22 690.45 C-149.61 690.38 -130.99 690.34 -112.38 690.31 C-109.96 690.31 -107.54 690.3 -105.12 690.3 C-98.7 690.29 -92.28 690.28 -85.85 690.27 C-76.28 690.25 -66.71 690.23 -57.14 690.21 C-8.31 690.11 40.52 690.21 89.36 690.63 C90.81 690.65 92.27 690.66 93.72 690.67 C100.56 690.73 107.4 690.79 114.24 690.85 C125.97 690.95 137.69 691.05 149.42 691.13 C150.59 691.14 151.77 691.15 152.98 691.16 C160.03 691.21 167.08 691.25 174.13 691.28 C176.29 691.29 178.44 691.3 180.59 691.31 C199.83 692.45 199.83 692.45 217.02 685.68 C223.5 678.5 223.57 669.68 223.55 660.51 C223.55 659.54 223.55 658.58 223.55 657.58 C223.55 654.32 223.55 651.07 223.55 647.81 C223.55 645.46 223.55 643.11 223.55 640.76 C223.56 634.96 223.56 629.17 223.55 623.37 C223.55 616.43 223.55 609.49 223.55 602.55 C223.56 588.95 223.56 575.35 223.56 561.76 C223.55 549.86 223.55 537.95 223.55 526.05 C223.55 525.27 223.55 524.48 223.55 523.66 C223.55 520.46 223.56 517.26 223.56 514.06 C223.56 484.01 223.56 453.96 223.55 423.91 C223.55 397.2 223.55 370.49 223.55 343.79 C223.56 313.79 223.56 283.8 223.56 253.8 C223.56 250.61 223.55 247.41 223.55 244.21 C223.55 243.43 223.55 242.64 223.55 241.83 C223.55 229.93 223.55 218.04 223.56 206.15 C223.56 192.62 223.56 179.1 223.55 165.58 C223.55 158.68 223.55 151.78 223.55 144.87 C223.56 138.56 223.55 132.24 223.55 125.93 C223.55 123.64 223.55 121.35 223.55 119.06 C223.55 115.96 223.55 112.86 223.55 109.76 C223.55 108.86 223.55 107.96 223.55 107.04 C223.54 102.62 223.31 98.48 222.42 94.13 C221.76 94.13 221.1 94.13 220.42 94.13 C220.34 93.31 220.26 92.48 220.17 91.63 C219.13 86.75 217.85 81.99 213.73 78.84 C205.04 74.26 196.01 72.67 186.3 72.66 C185.27 72.66 184.24 72.65 183.18 72.64 C181.02 72.63 178.87 72.63 176.71 72.63 C173.43 72.63 170.15 72.59 166.87 72.55 C164.76 72.54 162.65 72.54 160.55 72.54 C159.58 72.52 158.61 72.51 157.62 72.49 C149.2 72.57 142.77 75.2 136.43 80.75 C135.67 81.64 134.9 82.53 134.11 83.45 C133.28 84.41 132.44 85.38 131.58 86.37 C129.85 88.59 128.38 90.7 126.98 93.13 C124.19 97.98 120.1 101.61 116.13 105.47 C110.66 110.85 105.9 116.71 101.23 122.79 C96.66 128.71 91.94 134.5 87.17 140.26 C81.77 146.83 76.7 153.65 71.65 160.49 C70.64 161.84 69.61 163.16 68.57 164.48 C67.23 166.07 67.23 166.07 67.42 168.13 C66.82 168.4 66.23 168.66 65.61 168.93 C63.28 170.21 62.06 171.41 60.36 173.45 C59.47 174.5 59.47 174.5 58.57 175.58 C57.86 176.42 57.15 177.26 56.42 178.13 C55.47 179.23 54.51 180.32 53.56 181.41 C52.55 182.57 51.55 183.73 50.55 184.88 C50.06 185.44 49.57 185.99 49.06 186.56 C46.63 189.4 45.22 191.5 44.42 195.13 C43.43 195.46 42.44 195.79 41.42 196.13 C40.52 197.45 39.63 198.77 38.78 200.13 C35.67 204.71 31.96 208.88 28.42 213.13 C27.65 214.06 27.65 214.06 26.87 215 C26.45 215.5 26.04 216 25.61 216.51 C24.14 218.28 22.72 220.09 21.36 221.95 C19.33 224.23 18.4 224.81 15.42 225.13 C15.09 223.48 14.76 221.83 14.42 220.13 C13.43 219.8 12.44 219.47 11.42 219.13 C10.44 217.36 10.44 217.36 9.42 215.13 C8.36 213.6 7.28 212.09 6.18 210.59 C2.4 205.24 -0.71 199.67 -3.77 193.88 C-7.56 186.61 -7.56 186.61 -11.88 179.65 C-13.58 177.13 -13.58 177.13 -14.58 174.13 C-15.24 174.13 -15.9 174.13 -16.58 174.13 C-16.85 173.41 -17.12 172.68 -17.4 171.94 C-18.56 169.18 -19.92 166.79 -21.52 164.26 C-27.53 154.34 -27.53 154.34 -27.64 149.38 C-26.11 146.13 -23.78 145.7 -20.58 144.13 C-18.43 142.71 -16.31 141.25 -14.2 139.76 C-10.46 137.11 -6.7 134.55 -2.77 132.2 C-1.72 131.52 -0.66 130.83 0.42 130.13 C0.42 129.47 0.42 128.81 0.42 128.13 C1.14 127.88 1.86 127.62 2.61 127.36 C5.58 126.06 7.83 124.52 10.42 122.57 C14.7 119.39 19.03 116.29 23.42 113.26 C24.49 112.52 25.57 111.78 26.67 111.02 C28.58 109.71 30.5 108.42 32.42 107.13 C32.42 106.47 32.42 105.81 32.42 105.13 C33.32 104.88 34.21 104.62 35.14 104.36 C38.44 103.13 40.33 101.85 42.98 99.57 C49.78 93.92 57.07 89.04 64.42 84.13 C64.42 83.47 64.42 82.81 64.42 82.13 C65.22 81.95 66.03 81.76 66.86 81.57 C70.91 79.94 73.72 77.74 77.08 74.99 C79.76 72.87 82.57 71.02 85.42 69.13 C87.43 67.65 89.43 66.15 91.42 64.63 C96.13 61.05 100.91 57.69 105.94 54.57 C106.7 54.1 107.45 53.62 108.23 53.13 C109 52.66 109.77 52.18 110.57 51.7 C112.7 49.9 113.06 48.85 113.42 46.13 C110.97 44.91 109.39 45.01 106.65 45.01 C105.13 45 105.13 45 103.58 45 C101.9 45 101.9 45 100.18 45 C99 45 97.81 45 96.59 44.99 C93.3 44.99 90 44.99 86.7 44.99 C83.15 44.99 79.59 44.98 76.04 44.98 C69.08 44.97 62.11 44.97 55.15 44.97 C49.49 44.97 43.83 44.96 38.18 44.96 C22.15 44.95 6.12 44.95 -9.9 44.95 C-10.77 44.95 -11.63 44.95 -12.52 44.95 C-13.39 44.95 -14.25 44.95 -15.14 44.95 C-29.18 44.95 -43.22 44.94 -57.26 44.93 C-71.66 44.91 -86.05 44.9 -100.45 44.9 C-108.54 44.91 -116.63 44.9 -124.72 44.89 C-131.61 44.88 -138.49 44.88 -145.38 44.89 C-148.9 44.89 -152.41 44.89 -155.93 44.88 C-159.73 44.87 -163.54 44.88 -167.34 44.89 C-168.46 44.88 -169.59 44.88 -170.74 44.87 C-171.75 44.88 -172.77 44.88 -173.81 44.88 C-174.69 44.88 -175.57 44.88 -176.47 44.88 C-178.8 44.94 -178.8 44.94 -180.58 47.13 Z M140.42 59.13 C141.08 59.79 141.74 60.45 142.42 61.13 C142.42 60.47 142.42 59.81 142.42 59.13 C141.76 59.13 141.1 59.13 140.42 59.13 Z M-29.58 690.13 C-29.58 690.46 -29.58 690.79 -29.58 691.13 C-19.68 691.13 -9.78 691.13 0.42 691.13 C0.42 690.8 0.42 690.47 0.42 690.13 C-9.48 690.13 -19.38 690.13 -29.58 690.13 Z M-269.58 693.13 C-269.58 693.46 -269.58 693.79 -269.58 694.13 C-115.14 694.13 39.3 694.13 198.42 694.13 C198.42 693.8 198.42 693.47 198.42 693.13 C43.98 693.13 -110.46 693.13 -269.58 693.13 Z " fill="#F4F8F9" transform="translate(680.5794372558594,274.8662872314453)"/>
<path d="M0 0 C8.43 5.1 18.06 12.23 21 22 C21.34 25.29 21.37 28.56 21.38 31.88 C21.4 32.75 21.42 33.62 21.45 34.52 C21.48 40.57 20.5 44.05 17 49 C12.76 53.15 8.32 55.53 3 58 C3 58.99 3 59.98 3 61 C-1.62 61 -6.24 61 -11 61 C-11.33 59.68 -11.66 58.36 -12 57 C-13.81 55.86 -13.81 55.86 -16.06 55.12 C-22.87 52.36 -28.98 48.28 -33 42 C-33.75 39.19 -33.75 39.19 -34 37 C-34.33 37 -34.66 37 -35 37 C-35.6 26.31 -33.41 18.63 -26.57 10.25 C-20.22 3.2 -9.68 -2.94 0 0 Z " fill="#F4F8F9" transform="translate(646,522)"/>
<path d="M0 0 C6.46 6.09 10.93 12.39 11.39 21.39 C11.41 22.9 11.43 24.4 11.44 25.9 C11.46 26.65 11.48 27.4 11.5 28.17 C11.54 34.04 10.23 37.13 6.32 41.59 C5.66 42.25 5 42.91 4.31 43.59 C3.66 44.25 3 44.91 2.32 45.59 C-3.68 50.85 -8.83 51.14 -16.6 50.86 C-26.72 50.12 -34.2 46.02 -41.11 38.74 C-45.88 32.36 -45.27 25.71 -44.61 18.1 C-43.4 10.63 -39.29 4.53 -33.67 -0.43 C-22.89 -8.19 -10.34 -8.78 0 0 Z " fill="#F5F9FA" transform="translate(655.8125,716.5390625)"/>
<path d="M0 0 C0 0.66 0 1.32 0 2 C1.02 2.09 1.02 2.09 2.06 2.19 C8.64 4.01 12.96 8.66 17 14 C17.7 14.85 18.4 15.7 19.12 16.57 C21.64 21.16 21.56 24.79 21.44 29.94 C21.44 30.81 21.45 31.67 21.46 32.57 C21.39 39.48 20.25 44.39 15.62 49.75 C7.62 56.61 -0.98 57.58 -11.18 57.3 C-18.51 56.72 -22.11 54.2 -27 48.88 C-30 45.33 -30 45.33 -30 43 C-30.66 43 -31.32 43 -32 43 C-35.35 35.95 -34.53 27.88 -33.5 20.31 C-29.21 10.84 -24.08 4.92 -14.34 0.95 C-9.48 -0.43 -5 -0.54 0 0 Z " fill="#F5F9FA" transform="translate(646,872)"/>
<path d="M0 0 C45.92 -0.02 91.85 -0.03 137.77 -0.04 C138.45 -0.04 139.13 -0.04 139.83 -0.04 C154.59 -0.05 169.35 -0.05 184.11 -0.05 C191.35 -0.05 198.59 -0.05 205.82 -0.05 C206.54 -0.06 207.26 -0.06 208.01 -0.06 C231.37 -0.06 254.73 -0.07 278.1 -0.08 C302.1 -0.09 326.1 -0.09 350.1 -0.09 C353.49 -0.09 356.87 -0.09 360.26 -0.09 C360.93 -0.09 361.59 -0.1 362.28 -0.1 C372.36 -0.1 382.44 -0.1 392.52 -0.11 C403.99 -0.11 415.45 -0.11 426.91 -0.11 C432.76 -0.11 438.61 -0.11 444.47 -0.12 C449.82 -0.12 455.17 -0.12 460.52 -0.12 C462.46 -0.12 464.4 -0.12 466.35 -0.12 C468.97 -0.13 471.6 -0.13 474.23 -0.12 C474.99 -0.13 475.76 -0.13 476.55 -0.13 C481.77 -0.11 481.77 -0.11 484 1 C484 1.99 484 2.98 484 4 C324.94 4 165.88 4 2 4 C1.34 2.68 0.68 1.36 0 0 Z " fill="#000102" transform="translate(402,995)"/>
<path d="M0 0 C1.58 -0.03 3.17 -0.05 4.75 -0.06 C6.07 -0.08 6.07 -0.08 7.42 -0.1 C9.78 -0.01 11.74 0.33 14 1 C14 1.99 14 2.98 14 4 C9.38 4 4.76 4 0 4 C0 2.68 0 1.36 0 0 Z " fill="#000102" transform="translate(635,579)"/>
<path d="M0 0 C16.5 0 33 0 50 0 C50 0.33 50 0.66 50 1 C33.5 1 17 1 0 1 C0 0.67 0 0.34 0 0 Z " fill="#000102" transform="translate(620,61)"/>
<path d="M0 0 C15.84 0 31.68 0 48 0 C48 0.33 48 0.66 48 1 C32.16 1 16.32 1 0 1 C0 0.67 0 0.34 0 0 Z " fill="#000102" transform="translate(830,349)"/>
<path d="M0 0 C0 0.99 0 1.98 0 3 C-5.94 3 -11.88 3 -18 3 C-18 2.67 -18 2.34 -18 2 C-16.95 1.94 -15.9 1.88 -14.82 1.82 C-13.45 1.73 -12.07 1.65 -10.69 1.56 C-10 1.52 -9.31 1.48 -8.6 1.44 C-5.53 1.25 -2.93 0.98 0 0 Z " fill="#000102" transform="translate(650,928)"/>
<path d="M0 0 C6.27 0 12.54 0 19 0 C19 0.33 19 0.66 19 1 C12.73 1 6.46 1 0 1 C0 0.67 0 0.34 0 0 Z " fill="#000102" transform="translate(412,349)"/>
<path d="M0 0 C0.33 0 0.66 0 1 0 C1 3.3 1 6.6 1 10 C0.67 10 0.34 10 0 10 C0 6.7 0 3.4 0 0 Z " fill="#F5F9FA" transform="translate(350,405)"/>
<path d="M0 0 C0.33 0 0.66 0 1 0 C1 2.64 1 5.28 1 8 C0.67 8 0.34 8 0 8 C0 5.36 0 2.72 0 0 Z " fill="#000102" transform="translate(1277,583)"/>
<path d="M0 0 C2.31 0 4.62 0 7 0 C7 0.33 7 0.66 7 1 C4.69 1 2.38 1 0 1 C0 0.67 0 0.34 0 0 Z " fill="#000102" transform="translate(676,1272)"/>
<path d="M0 0 C0.33 0 0.66 0 1 0 C1 2.31 1 4.62 1 7 C0.67 7 0.34 7 0 7 C0 4.69 0 2.38 0 0 Z " fill="#000102" transform="translate(1277,683)"/>
<path d="M0 0 C0.33 0 0.66 0 1 0 C1 2.31 1 4.62 1 7 C0.67 7 0.34 7 0 7 C0 4.69 0 2.38 0 0 Z " fill="#000102" transform="translate(70,676)"/>
<path d="M0 0 C0.33 0 0.66 0 1 0 C1 1.98 1 3.96 1 6 C0.67 6 0.34 6 0 6 C0 4.02 0 2.04 0 0 Z " fill="#000102" transform="translate(70,583)"/>
<path d="M0 0 C0.33 0 0.66 0 1 0 C1 1.65 1 3.3 1 5 C0.67 5 0.34 5 0 5 C0 3.35 0 1.7 0 0 Z " fill="#000102" transform="translate(668,554)"/>
<path d="M0 0 C4 1 4 1 4 1 Z " fill="#000102" transform="translate(588,1272)"/>
<path d="" fill="#000102" transform="translate(0,0)"/>
<path d="" fill="#000102" transform="translate(0,0)"/>
<path d="" fill="#F5F9FA" transform="translate(0,0)"/>
<path d="M0 0 C3 1 3 1 3 1 Z " fill="#000102" transform="translate(744,70)"/>
<path d="M0 0 C3 1 3 1 3 1 Z " fill="#000102" transform="translate(544,70)"/>
<path d="M0 0 C3 1 3 1 3 1 Z " fill="#000102" transform="translate(712,65)"/>
<path d="M0 0 C3 1 3 1 3 1 Z " fill="#000102" transform="translate(576,65)"/>
<path d="M0 0 C2 1 2 1 2 1 Z " fill="#000102" transform="translate(758,1263)"/>
<path d="" fill="#000102" transform="translate(0,0)"/>
<path d="" fill="#000102" transform="translate(0,0)"/>
<path d="" fill="#000102" transform="translate(0,0)"/>
<path d="" fill="#000102" transform="translate(0,0)"/>
<path d="" fill="#000102" transform="translate(0,0)"/>
<path d="M0 0 C2 1 2 1 2 1 Z " fill="#000102" transform="translate(790,321)"/>
<path d="M0 0 C2 1 2 1 2 1 Z " fill="#000102" transform="translate(784,79)"/>
<path d="" fill="#000102" transform="translate(0,0)"/>
<path d="" fill="#000102" transform="translate(0,0)"/>
<path d="" fill="#000102" transform="translate(0,0)"/>
<path d="" fill="#000102" transform="translate(0,0)"/>
<path d="" fill="#000102" transform="translate(0,0)"/>
<path d="" fill="#000102" transform="translate(0,0)"/>
<path d="" fill="#000102" transform="translate(0,0)"/>
<path d="" fill="#000102" transform="translate(0,0)"/>
<path d="" fill="#000102" transform="translate(0,0)"/>
<path d="" fill="#000102" transform="translate(0,0)"/>
<path d="" fill="#000102" transform="translate(0,0)"/>
<path d="" fill="#000102" transform="translate(0,0)"/>
<path d="" fill="#F5F9FA" transform="translate(0,0)"/>
<path d="" fill="#000102" transform="translate(0,0)"/>
<path d="" fill="#000102" transform="translate(0,0)"/>
<path d="" fill="#000102" transform="translate(0,0)"/>
<path d="" fill="#000102" transform="translate(0,0)"/>
<path d="" fill="#000102" transform="translate(0,0)"/>
<path d="" fill="#000102" transform="translate(0,0)"/>
<path d="" fill="#F5F9FA" transform="translate(0,0)"/>
<path d="" fill="#000102" transform="translate(0,0)"/>
<path d="" fill="#000102" transform="translate(0,0)"/>
<path d="" fill="#000102" transform="translate(0,0)"/>
<path d="" fill="#000102" transform="translate(0,0)"/>
<path d="" fill="#000102" transform="translate(0,0)"/>
</svg>
